<?xml version="1.0" encoding="UTF-8"?>
<svg width="18px" height="22px" viewBox="0 0 18 22" version="1.1" xmlns="http://www.w3.org/2000/svg" xmlns:xlink="http://www.w3.org/1999/xlink">
    <!-- Generator: Sketch 52.2 (67145) - http://www.bohemiancoding.com/sketch -->
    <title>outline-notification_important-24px</title>
    <desc>Created with Sketch.</desc>
    <g id="Page-1" stroke="none" stroke-width="1" fill="none" fill-rule="evenodd">
        <g id="outline-notification_important-24px" fill="#000000" fill-rule="nonzero">
            <path d="M7.01,20.01 C7.01,21.11 7.9,22 9,22 C10.1,22 10.99,21.11 10.99,20.01 L7.01,20.01 Z M9,5 C11.76,5 14,7.24 14,10 L14,17 L4,17 L4,10 C4,7.24 6.24,5 9,5 Z M9,0.5 C8.17,0.5 7.5,1.17 7.5,2 L7.5,3.17 C4.36,3.85 2,6.65 2,10 L2,16 L0,18 L0,19 L18,19 L18,18 L16,16 L16,10 C16,6.65 13.64,3.85 10.5,3.17 L10.5,2 C10.5,1.17 9.83,0.5 9,0.5 Z" id="Shape"></path>
        </g>
    </g>
</svg>