<?xml version="1.0" encoding="utf-8"?>
<!-- Generator: Adobe Illustrator 22.0.1, SVG Export Plug-In . SVG Version: 6.00 Build 0)  -->
<svg version="1.1"
	 id="svg2" inkscape:version="0.91 r13725" sodipodi:docname="Currency Icons.svg" xmlns:cc="http://creativecommons.org/ns#" xmlns:dc="http://purl.org/dc/elements/1.1/" xmlns:inkscape="http://www.inkscape.org/namespaces/inkscape" xmlns:rdf="http://www.w3.org/1999/02/22-rdf-syntax-ns#" xmlns:sodipodi="http://sodipodi.sourceforge.net/DTD/sodipodi-0.dtd" xmlns:svg="http://www.w3.org/2000/svg"
	 xmlns="http://www.w3.org/2000/svg" xmlns:xlink="http://www.w3.org/1999/xlink" x="0px" y="0px" viewBox="0 0 595.3 841.9"
	 style="enable-background:new 0 0 595.3 841.9;" xml:space="preserve">
<style type="text/css">
	.st0{fill:#9B9B9B;}
	.st1{fill:#FFD5D5;}
	.st2{fill:#FFFFFF;}
	.st3{font-family:'Arial-Black';}
	.st4{font-size:22px;}
	.st5{font-size:10.9551px;}
	.st6{fill:#999999;}
	.st7{fill:#FFB900;}
	.st8{fill:#5984A5;}
	.st9{fill:#CCCCCC;}
	.st10{fill:#B3B3B3;}
	.st11{fill:#74A4C7;}
	.st12{fill:#527FA1;}
	.st13{fill:#739FC1;}
	.st14{fill:#447093;}
	.st15{fill:#427498;}
	.st16{fill:#FFAC00;}
	.st17{fill:#D40000;}
	.st18{stroke:#000000;stroke-width:0.8;stroke-linecap:round;stroke-linejoin:round;}
</style>
<sodipodi:namedview  bordercolor="#666666" borderopacity="1.0" id="base" inkscape:current-layer="layer1" inkscape:cx="490.73475" inkscape:cy="699.87069" inkscape:document-units="px" inkscape:guide-bbox="true" inkscape:pageopacity="0.0" inkscape:pageshadow="2" inkscape:window-height="973" inkscape:window-maximized="0" inkscape:window-width="1952" inkscape:window-x="1623" inkscape:window-y="6" inkscape:zoom="1.0561422" pagecolor="#ffffff" showgrid="false" showguides="true">
	</sodipodi:namedview>
<ellipse id="path4325" class="st0" cx="352.4" cy="334.1" rx="26.4" ry="25.8"/>
<path id="path4248" inkscape:connector-curvature="0" inkscape:export-xdpi="90" inkscape:export-ydpi="90" class="st1" d="
	M351.9,302.7c-17.2,0-31.2,14-31.2,31.2l0,0c0,17.2,14,31.2,31.2,31.2l0,0c17.2,0,31.2-14,31.2-31.2l0,0
	C383.1,316.6,369.1,302.7,351.9,302.7L351.9,302.7z M350.8,314.9h3.1v2.1c3.1,0.2,5.5,0.9,7.2,2.2c1.7,1.3,2.7,3,3.2,5.3l-7.8,1.2
	c-0.4-1-0.7-1.7-1.1-2.1c-0.3-0.4-0.8-0.8-1.5-1.2v6.1c4.2,1.1,7.1,2.3,8.5,3.6c1.9,1.7,2.8,3.8,2.8,6.4c0,1.5-0.3,2.9-1,4.2
	c-0.7,1.3-1.5,2.3-2.6,3.2c-1,0.9-2.2,1.5-3.4,1.9c-1.2,0.4-2.6,0.6-4.4,0.7v4h-3.1v-4c-2.1-0.2-3.7-0.5-5-1c-1.3-0.5-2.4-1.2-3.3-2
	c-0.9-0.9-1.6-1.8-2.1-2.7c-0.5-1-0.9-2.2-1.1-3.6l8.5-1c0.3,1.4,0.6,2.4,1,3c0.4,0.6,1.1,1.2,2.1,1.6v-7.4c-2.8-0.8-4.8-1.5-6-2
	c-1.2-0.6-2.2-1.5-3.1-2.7c-0.9-1.3-1.3-2.8-1.3-4.6c0-2.5,0.9-4.6,2.6-6.2c1.7-1.7,4.3-2.6,7.8-2.8L350.8,314.9L350.8,314.9z
	 M350.8,322.4c-0.9,0.3-1.5,0.7-1.9,1.1c-0.3,0.4-0.5,0.9-0.5,1.5c0,0.6,0.2,1.2,0.5,1.6c0.4,0.4,1,0.8,1.9,1.1V322.4L350.8,322.4z
	 M353.8,336.3v6.7c1.2-0.3,2.1-0.7,2.6-1.3c0.6-0.6,0.8-1.3,0.8-2.1c0-0.7-0.2-1.3-0.7-1.8C356.1,337.3,355.2,336.8,353.8,336.3
	L353.8,336.3z"/>
<path id="path3585" inkscape:connector-curvature="0" d="M43.1,63.2c-1.7-0.1-3.4-0.4-5-1.1c-3.3-1.3-6.1-3.6-8-6.7
	c-1.1-1.8-1.8-3.7-2.1-5.8c-0.1-0.8-0.2-1.4-0.2-2.2c0-1.2,0.1-2.2,0.3-3.3c0.7-3.5,2.5-6.6,5.2-9c1.8-1.6,4-2.7,6.3-3.4
	c2-0.5,4.1-0.7,6.1-0.5c4.1,0.5,7.9,2.5,10.5,5.7c0.8,0.9,1.4,1.9,1.9,2.9c1,2,1.6,4.1,1.7,6.4c0,0.4,0,1.6,0,1.9
	c-0.1,1-0.2,1.9-0.4,2.8c-0.4,1.8-1.2,3.4-2.2,5c-1.9,2.9-4.8,5.2-8.2,6.3c-1.4,0.5-2.7,0.7-4.3,0.8C44.5,63.2,43.3,63.2,43.1,63.2
	L43.1,63.2z M43.7,55.6c0.2-0.8,0.4-1.4,0.4-1.5c0,0,0.1,0,0.4,0c0.8,0.1,1.2,0.2,1.9,0.2c0.5,0,0.8,0,1.1-0.1
	c0.8-0.2,1.5-0.5,2-1.1c0.5-0.6,0.9-1.5,1-2.4c0-0.3,0-0.9,0-1.1c-0.1-0.6-0.4-1-0.8-1.5c-0.2-0.2-0.6-0.5-0.9-0.7
	c-0.1,0-0.1-0.1-0.1-0.1c0,0,0,0,0.1,0c0.2-0.1,0.6-0.2,0.9-0.4c0.7-0.4,1.1-1.2,1.3-2.2c0-0.2,0-0.7,0-0.9
	c-0.1-0.6-0.3-1.1-0.8-1.5c-0.5-0.6-1.4-1.1-2.5-1.5c-0.1,0-0.2-0.1-0.2-0.1c0,0,0.2-0.7,0.3-1.4c0.2-0.8,0.4-1.4,0.4-1.4
	c0,0-1.7-0.5-1.8-0.4c0,0-0.2,0.6-0.4,1.4c-0.2,0.8-0.3,1.4-0.4,1.4c0,0-0.1,0-0.1,0c-0.1,0-0.4-0.1-0.7-0.2
	c-0.3-0.1-0.6-0.1-0.6-0.1c0,0,0-0.1,0.3-1.4c0.2-0.8,0.4-1.4,0.4-1.4c0,0-1.8-0.4-1.8-0.4c0,0-0.2,0.7-0.4,1.4
	c-0.2,0.8-0.4,1.4-0.4,1.4c0,0-0.6-0.1-0.9-0.2c-0.7-0.2-2.6-0.7-2.6-0.7c0,0-0.5,1.9-0.5,1.9c0,0,0.1,0,0.3,0.1
	c0.8,0.2,1.2,0.3,1.4,0.4c0.1,0.1,0.3,0.2,0.4,0.4c0.1,0.1,0.1,0.3,0.1,0.4c0,0.1-2,8-2,8.1c-0.1,0.1-0.2,0.2-0.3,0.3
	c-0.2,0.1-0.3,0.1-1.5-0.2c-0.1,0-0.3-0.1-0.3-0.1c0,0-0.9,2-0.9,2c0,0,0.6,0.1,1.3,0.3c1.2,0.3,2.3,0.6,2.3,0.6
	c0,0-0.2,0.7-0.4,1.5c-0.2,0.8-0.4,1.5-0.4,1.5c0,0,1.8,0.4,1.8,0.4c0,0,0.2-0.7,0.4-1.4c0.2-0.8,0.4-1.4,0.4-1.4c0,0,0.2,0,0.4,0.1
	c0.2,0.1,0.5,0.1,0.7,0.2l0.3,0.1L42,55.2c-0.2,0.8-0.4,1.4-0.4,1.4c0,0,1.7,0.4,1.7,0.4C43.4,57.1,43.5,56.8,43.7,55.6L43.7,55.6z
	 M44.4,51.8c-0.7-0.1-1.4-0.2-2.3-0.4c-0.2,0-0.3-0.1-0.4-0.1c-0.1,0-0.1,0-0.1-0.1c0,0,0.2-0.9,0.5-1.9l0.5-1.9l0.2,0
	c0.1,0,0.3,0.1,0.5,0.1c1.7,0.4,2.7,0.8,3.3,1.4c0.2,0.2,0.3,0.4,0.4,0.7c0.1,0.2,0.1,0.5,0,0.7c-0.1,0.8-0.6,1.2-1.5,1.4
	c-0.1,0-0.3,0-0.6,0C44.6,51.8,44.4,51.8,44.4,51.8L44.4,51.8z M45.1,46.1c-0.3,0-0.8-0.1-1.2-0.2c-0.2,0-1-0.3-1.1-0.3
	c0,0,0.9-3.5,0.9-3.5c0,0,1.3,0.3,1.6,0.4c1,0.3,1.7,0.8,1.9,1.3c0.1,0.2,0.1,0.3,0.1,0.6c0,0.2,0,0.3,0,0.4
	c-0.1,0.3-0.2,0.5-0.4,0.7c-0.3,0.3-0.6,0.4-1.1,0.5C45.8,46.1,45.3,46.1,45.1,46.1L45.1,46.1z"/>
<path id="path3652" inkscape:connector-curvature="0" d="M43.8,106.4c-0.6,0-1-0.1-1.4-0.1c-3.9-0.5-7.6-2.4-10.2-5.5
	c-1.5-1.7-2.6-3.8-3.2-5.9c-0.3-0.9-0.5-1.9-0.6-2.9c-0.1-0.9-0.1-1.9,0-2.8c0.2-2.7,1.1-5.2,2.5-7.5c0.4-0.6,0.8-1.2,1.2-1.7
	c0.5-0.6,1.2-1.3,1.8-1.8c2.9-2.5,6.6-3.8,10.4-3.8c3,0,6,0.8,8.5,2.5c1,0.6,1.9,1.3,2.7,2.1c1.3,1.3,2.3,2.7,3.1,4.3
	c0.9,1.8,1.4,3.7,1.6,5.7c0,0.5,0.1,0.7,0.1,1.4c0,0.7,0,0.9-0.1,1.4c-0.3,3-1.3,5.8-3.1,8.2c-0.7,1-1.6,1.9-2.6,2.7
	c-1.7,1.4-3.7,2.4-5.7,3.1c-1.1,0.3-2.2,0.5-3.4,0.6C45.2,106.4,44.1,106.4,43.8,106.4L43.8,106.4z M51.3,96.3
	c0.2-0.8,0.4-1.6,0.4-1.6l0,0h-4.1c-2.3,0-4.1,0-4.1,0c0,0,1-3.9,1-3.9c0,0,0.6-0.2,1.2-0.5s1.2-0.5,1.2-0.5c0,0,0.6-2.3,0.6-2.3
	c0,0,0,0,0,0c-0.1,0.1-2.4,0.9-2.4,0.9c0,0,0.4-1.5,0.9-3.2c0.5-1.8,0.9-3.3,0.9-3.3l0,0h-2.5c-2.3,0-2.5,0-2.5,0
	c0,0-0.5,1.9-1.1,4.3c-0.6,2.3-1.1,4.3-1.1,4.3c0,0-1.9,0.7-1.9,0.7c0,0,0,0,0,0c0,0-0.6,2.3-0.6,2.3c0,0,0.4-0.2,0.9-0.3
	c0.5-0.2,0.9-0.3,0.9-0.3c0,0-0.3,1.1-0.7,2.5c-0.4,1.4-0.7,2.5-0.7,2.5c0,0,1.7,0,6.6,0l6.6,0L51.3,96.3L51.3,96.3z"/>
<path id="path4898" inkscape:connector-curvature="0" d="M44.5,114.8c-8.8,0-16,7.2-16,16l0,0c0,8.8,7.2,16,16,16s16-7.2,16-16
	S53.4,114.8,44.5,114.8z M44.7,120.7l6.5,10.3l-6.4,3.6l-6.5-3.7L44.7,120.7L44.7,120.7z M38.1,132.1l6.6,3.7l6.3-3.7l-6.3,8.4
	L38.1,132.1L38.1,132.1z"/>
<circle id="path4905" cx="45.1" cy="179.4" r="16"/>
<text transform="matrix(1 0 0 1 37.1704 186.9274)" class="st2 st3 st4">£</text>
<circle id="circle4911" cx="45.1" cy="227.4" r="16"/>
<text transform="matrix(1 0 0 1 37.9658 234.6427)" class="st2 st3 st4">$</text>
<circle id="circle4919" cx="45.1" cy="275.4" r="16"/>
<text transform="matrix(1 0 0 1 37.6011 283.3722)" class="st2 st3 st4">€</text>
<path id="path4935" inkscape:connector-curvature="0" d="M107.1,63.2c-1.7-0.1-3.4-0.4-5-1.1c-3.3-1.3-6.1-3.6-8-6.7
	c-1.1-1.8-1.8-3.7-2.1-5.8c-0.1-0.8-0.2-1.4-0.2-2.2c0-1.2,0.1-2.2,0.3-3.3c0.7-3.5,2.5-6.6,5.2-9c1.8-1.6,4-2.7,6.3-3.4
	c2-0.5,4.1-0.7,6.1-0.5c4.1,0.5,7.9,2.5,10.5,5.7c0.8,0.9,1.4,1.9,1.9,2.9c1,2,1.6,4.1,1.7,6.4c0,0.4,0,1.6,0,1.9
	c-0.1,1-0.2,1.9-0.4,2.8c-0.4,1.8-1.2,3.4-2.2,5c-1.9,2.9-4.8,5.2-8.2,6.3c-1.4,0.5-2.7,0.7-4.3,0.8
	C108.5,63.2,107.3,63.2,107.1,63.2L107.1,63.2z M107.7,55.6c0.2-0.8,0.4-1.4,0.4-1.5c0,0,0.1,0,0.4,0c0.8,0.1,1.2,0.2,1.9,0.2
	c0.5,0,0.8,0,1.1-0.1c0.8-0.2,1.5-0.5,2-1.1c0.5-0.6,0.9-1.5,1-2.4c0-0.3,0-0.9,0-1.1c-0.1-0.6-0.4-1-0.8-1.5
	c-0.2-0.2-0.6-0.5-0.9-0.7c-0.1,0-0.1-0.1-0.1-0.1c0,0,0,0,0.1,0c0.2-0.1,0.6-0.2,0.9-0.4c0.7-0.4,1.1-1.2,1.3-2.2
	c0-0.2,0-0.7,0-0.9c-0.1-0.6-0.3-1.1-0.8-1.5c-0.5-0.6-1.4-1.1-2.5-1.5c-0.1,0-0.2-0.1-0.2-0.1c0,0,0.2-0.7,0.3-1.4
	c0.2-0.8,0.4-1.4,0.4-1.4c0,0-1.7-0.5-1.8-0.4c0,0-0.2,0.6-0.4,1.4c-0.2,0.8-0.3,1.4-0.4,1.4c0,0-0.1,0-0.1,0
	c-0.1,0-0.4-0.1-0.7-0.2c-0.3-0.1-0.6-0.1-0.6-0.1c0,0,0-0.1,0.3-1.4c0.2-0.8,0.4-1.4,0.4-1.4c0,0-1.8-0.4-1.8-0.4
	c0,0-0.2,0.7-0.4,1.4c-0.2,0.8-0.4,1.4-0.4,1.4c0,0-0.6-0.1-0.9-0.2c-0.7-0.2-2.6-0.7-2.6-0.7c0,0-0.5,1.9-0.5,1.9
	c0,0,0.1,0,0.3,0.1c0.8,0.2,1.2,0.3,1.4,0.4c0.1,0.1,0.3,0.2,0.4,0.4c0.1,0.1,0.1,0.3,0.1,0.4c0,0.1-2,8-2,8.1
	c-0.1,0.1-0.2,0.2-0.3,0.3c-0.2,0.1-0.3,0.1-1.5-0.2c-0.1,0-0.3-0.1-0.3-0.1c0,0-0.9,2-0.9,2c0,0,0.6,0.1,1.3,0.3
	c1.2,0.3,2.3,0.6,2.3,0.6c0,0-0.2,0.7-0.4,1.5c-0.2,0.8-0.4,1.5-0.4,1.5c0,0,1.8,0.4,1.8,0.4c0,0,0.2-0.7,0.4-1.4
	c0.2-0.8,0.4-1.4,0.4-1.4c0,0,0.2,0,0.4,0.1c0.2,0.1,0.5,0.1,0.7,0.2l0.3,0.1l-0.4,1.4c-0.2,0.8-0.4,1.4-0.4,1.4
	c0,0,1.7,0.4,1.7,0.4C107.4,57.1,107.5,56.8,107.7,55.6L107.7,55.6z M108.4,51.8c-0.7-0.1-1.4-0.2-2.3-0.4c-0.2,0-0.3-0.1-0.4-0.1
	c-0.1,0-0.1,0-0.1-0.1c0,0,0.2-0.9,0.5-1.9l0.5-1.9l0.2,0c0.1,0,0.3,0.1,0.5,0.1c1.7,0.4,2.7,0.8,3.3,1.4c0.2,0.2,0.3,0.4,0.4,0.7
	c0.1,0.2,0.1,0.5,0,0.7c-0.1,0.8-0.6,1.2-1.5,1.4c-0.1,0-0.3,0-0.6,0C108.6,51.8,108.4,51.8,108.4,51.8L108.4,51.8z M109.1,46.1
	c-0.3,0-0.8-0.1-1.2-0.2c-0.2,0-1-0.3-1.1-0.3c0,0,0.9-3.5,0.9-3.5c0,0,1.3,0.3,1.6,0.4c1,0.3,1.7,0.8,1.9,1.3
	c0.1,0.2,0.1,0.3,0.1,0.6c0,0.2,0,0.3,0,0.4c-0.1,0.3-0.2,0.5-0.4,0.7c-0.3,0.3-0.6,0.4-1.1,0.5C109.8,46.1,109.3,46.1,109.1,46.1
	L109.1,46.1z"/>
<path id="path4937" inkscape:connector-curvature="0" d="M107.8,106.4c-0.6,0-1-0.1-1.4-0.1c-3.9-0.5-7.6-2.4-10.2-5.5
	c-1.5-1.7-2.6-3.8-3.2-5.9c-0.3-0.9-0.5-1.9-0.6-2.9c-0.1-0.9-0.1-1.9,0-2.8c0.2-2.7,1.1-5.2,2.5-7.5c0.4-0.6,0.8-1.2,1.2-1.7
	c0.5-0.6,1.2-1.3,1.8-1.8c2.9-2.5,6.6-3.8,10.4-3.8c3,0,6,0.8,8.5,2.5c1,0.6,1.9,1.3,2.7,2.1c1.3,1.3,2.3,2.7,3.1,4.3
	c0.9,1.8,1.4,3.7,1.6,5.7c0,0.5,0.1,0.7,0.1,1.4c0,0.7,0,0.9-0.1,1.4c-0.3,3-1.3,5.8-3.1,8.2c-0.7,1-1.6,1.9-2.6,2.7
	c-1.7,1.4-3.7,2.4-5.7,3.1c-1.1,0.3-2.2,0.5-3.4,0.6C109.2,106.4,108.1,106.4,107.8,106.4L107.8,106.4z M115.3,96.3
	c0.2-0.8,0.4-1.6,0.4-1.6l0,0h-4.1c-2.3,0-4.1,0-4.1,0c0,0,1-3.9,1-3.9c0,0,0.6-0.2,1.2-0.5s1.2-0.5,1.2-0.5c0,0,0.6-2.3,0.6-2.3
	c0,0,0,0,0,0c-0.1,0.1-2.4,0.9-2.4,0.9c0,0,0.4-1.5,0.9-3.2s0.9-3.3,0.9-3.3l0,0h-2.5c-2.3,0-2.5,0-2.5,0c0,0-0.5,1.9-1.1,4.3
	c-0.6,2.3-1.1,4.3-1.1,4.3c0,0-1.9,0.7-1.9,0.7c0,0,0,0,0,0c0,0-0.6,2.3-0.6,2.3c0,0,0.4-0.2,0.9-0.3c0.5-0.2,0.9-0.3,0.9-0.3
	c0,0-0.3,1.1-0.7,2.5c-0.4,1.4-0.7,2.5-0.7,2.5c0,0,1.7,0,6.6,0l6.6,0L115.3,96.3L115.3,96.3z"/>
<path id="path4939" inkscape:connector-curvature="0" d="M108.5,114.8c-8.8,0-16,7.2-16,16s7.2,16,16,16s16-7.2,16-16
	S117.4,114.8,108.5,114.8z M108.7,120.7l6.5,10.3l-6.4,3.6l-6.5-3.7L108.7,120.7L108.7,120.7z M102.1,132.1l6.6,3.7l6.3-3.7
	l-6.3,8.4L102.1,132.1L102.1,132.1z"/>
<path id="circle4941" d="M109.1,163.4c-8.8,0-16,7.2-16,16c0,8.8,7.2,16,16,16c8.8,0,16-7.2,16-16
	C125.1,170.6,117.9,163.4,109.1,163.4z M109.2,170.9c1.2,0,2.2,0.1,2.9,0.4c0.7,0.3,1.3,0.7,1.8,1.4c0.5,0.6,0.8,1.4,1,2.3l-4.1,0.6
	c-0.2-0.8-0.4-1.3-0.7-1.5c-0.3-0.3-0.6-0.4-0.9-0.4c-0.4,0-0.8,0.1-1,0.4c-0.3,0.3-0.4,0.7-0.4,1.2c0,0.3,0,0.5,0.1,0.8
	c0.1,0.2,0.2,0.8,0.5,1.7h3.3v2.6h-2.9c0,0.6-0.1,1.2-0.3,1.6c-0.2,0.4-0.4,0.8-0.8,1.2c0.4-0.1,0.7-0.1,1-0.1
	c0.4,0,0.8,0.1,1.4,0.2c0.8,0.2,1.4,0.3,1.9,0.3c0.4,0,0.7,0,1-0.1c0.3-0.1,0.7-0.2,1.2-0.4l1.5,3.2c-0.7,0.4-1.3,0.6-1.9,0.7
	c-0.5,0.1-1.1,0.2-1.7,0.2c-0.7,0-1.4-0.1-2.3-0.4c-1.1-0.3-1.8-0.5-2.1-0.5c-0.3-0.1-0.6-0.1-0.9-0.1c-0.9,0-1.9,0.3-3.1,1
	l-1.4-3.1c1.5-1.1,2.3-2.2,2.3-3.2c0-0.1,0-0.2,0-0.5h-2.2v-2.6h1.6c-0.3-0.9-0.4-1.5-0.5-1.6c0-0.2-0.1-0.5-0.1-0.8
	c0-0.9,0.2-1.7,0.7-2.4c0.5-0.7,1.1-1.2,1.9-1.6C106.8,171.1,107.9,170.9,109.2,170.9z"/>
<path id="circle4947" d="M109.1,211.4c-8.8,0-16,7.2-16,16s7.2,16,16,16c8.8,0,16-7.2,16-16S117.9,211.4,109.1,211.4z M108.5,217.7
	h1.6v1.1c1.6,0.1,2.8,0.5,3.7,1.1c0.9,0.7,1.4,1.6,1.7,2.7l-4,0.6c-0.2-0.5-0.4-0.9-0.5-1.1c-0.2-0.2-0.4-0.4-0.8-0.6v3.1
	c2.2,0.6,3.6,1.2,4.4,1.8c1,0.9,1.4,2,1.4,3.3c0,0.8-0.2,1.5-0.5,2.1c-0.3,0.7-0.8,1.2-1.3,1.6c-0.5,0.4-1.1,0.8-1.7,1
	c-0.6,0.2-1.4,0.3-2.2,0.3v2h-1.6v-2c-1.1-0.1-1.9-0.3-2.6-0.5c-0.7-0.3-1.2-0.6-1.7-1c-0.5-0.4-0.8-0.9-1.1-1.4
	c-0.3-0.5-0.5-1.1-0.6-1.8l4.3-0.5c0.1,0.7,0.3,1.2,0.5,1.5c0.2,0.3,0.6,0.6,1.1,0.8v-3.8c-1.4-0.4-2.5-0.7-3.1-1
	c-0.6-0.3-1.1-0.8-1.6-1.4c-0.4-0.7-0.7-1.4-0.7-2.4c0-1.3,0.4-2.3,1.3-3.2c0.9-0.9,2.2-1.3,4-1.4V217.7z M108.5,221.5
	c-0.5,0.2-0.8,0.3-1,0.6c-0.2,0.2-0.3,0.5-0.3,0.8c0,0.3,0.1,0.6,0.3,0.8c0.2,0.2,0.5,0.4,1,0.6V221.5z M110.1,228.7v3.4
	c0.6-0.1,1.1-0.4,1.3-0.7c0.3-0.3,0.4-0.7,0.4-1.1c0-0.3-0.1-0.6-0.4-0.9C111.2,229.2,110.8,228.9,110.1,228.7z"/>
<g id="text4949">
</g>
<path id="circle4953" d="M109.1,259.4c-8.8,0-16,7.2-16,16s7.2,16,16,16c8.8,0,16-7.2,16-16S117.9,259.4,109.1,259.4z M111.2,267.4
	c1.4,0,2.8,0.4,4.2,1.1l-1,3.9c-1-0.9-2-1.3-3.1-1.3c-1.4,0-2.3,0.6-2.8,1.9h3.9l-0.5,2h-3.8c0,0.1,0,0.4,0,0.6v0.6h4l-0.5,2h-3.3
	c0.4,1.3,1.3,2,2.8,2c1.5,0,3-0.5,4.3-1.5v4c-1.1,0.8-2.5,1.1-4,1.1c-2.6,0-4.4-0.6-5.7-1.8c-1.2-1.2-2-2.5-2.2-3.9h-1.9l0.5-2h1.2
	c0-0.1,0-0.3,0-0.6c0-0.3,0-0.5,0-0.6h-1.4l0.5-2h1.2C104.5,269.2,107,267.4,111.2,267.4z"/>
<circle id="circle4973" cx="45.1" cy="323.4" r="16"/>
<text transform="matrix(1 0 0 1 32.2749 327.5197)" class="st2 st3 st5">LKR</text>
<path id="circle4986" d="M109.1,307.4c-8.8,0-16,7.2-16,16s7.2,16,16,16c8.8,0,16-7.2,16-16S117.9,307.4,109.1,307.4z M97.1,319.7
	h2.4v5.9h3.8v1.9h-6.2V319.7z M104.4,319.7h2.4v3l2.5-3h3.2l-2.9,3l3,4.9h-3l-1.7-3.2l-1.3,1.3v1.9h-2.4V319.7z M113.5,319.7h4
	c0.7,0,1.3,0.1,1.7,0.2c0.4,0.1,0.7,0.4,1,0.7c0.2,0.3,0.4,0.8,0.4,1.3c0,0.4-0.1,0.8-0.3,1.1c-0.2,0.3-0.4,0.6-0.8,0.8
	c-0.2,0.1-0.5,0.2-0.9,0.3c0.3,0.1,0.5,0.2,0.6,0.3c0.1,0.1,0.2,0.2,0.4,0.4c0.2,0.2,0.3,0.4,0.3,0.5l1.2,2.3h-2.7l-1.3-2.4
	c-0.2-0.3-0.3-0.5-0.4-0.6c-0.2-0.1-0.4-0.2-0.6-0.2H116v3.2h-2.4V319.7z M116,321.3v1.6h1c0.1,0,0.3,0,0.6-0.1
	c0.2,0,0.3-0.1,0.4-0.2c0.1-0.1,0.2-0.3,0.2-0.5c0-0.3-0.1-0.4-0.2-0.6c-0.2-0.1-0.5-0.2-0.9-0.2H116z"/>
<path id="path5004" inkscape:connector-curvature="0" inkscape:export-xdpi="90" inkscape:export-ydpi="90" class="st1" d="
	M171.1,63.2c-1.7-0.1-3.4-0.4-5-1.1c-3.3-1.3-6.1-3.6-8-6.7c-1.1-1.8-1.8-3.7-2.1-5.8c-0.1-0.8-0.2-1.4-0.2-2.2
	c0-1.2,0.1-2.2,0.3-3.3c0.7-3.5,2.5-6.6,5.2-9c1.8-1.6,4-2.7,6.3-3.4c2-0.5,4.1-0.7,6.1-0.5c4.1,0.5,7.9,2.5,10.5,5.7
	c0.8,0.9,1.4,1.9,1.9,2.9c1,2,1.6,4.1,1.7,6.4c0,0.4,0,1.6,0,1.9c-0.1,1-0.2,1.9-0.4,2.8c-0.4,1.8-1.2,3.4-2.2,5
	c-1.9,2.9-4.8,5.2-8.2,6.3c-1.4,0.5-2.7,0.7-4.3,0.8C172.5,63.2,171.3,63.2,171.1,63.2L171.1,63.2z M171.7,55.6
	c0.2-0.8,0.4-1.4,0.4-1.5c0,0,0.1,0,0.4,0c0.8,0.1,1.2,0.2,1.9,0.2c0.5,0,0.8,0,1.1-0.1c0.8-0.2,1.5-0.5,2-1.1
	c0.5-0.6,0.9-1.5,1-2.4c0-0.3,0-0.9,0-1.1c-0.1-0.6-0.4-1-0.8-1.5c-0.2-0.2-0.6-0.5-0.9-0.7c-0.1,0-0.1-0.1-0.1-0.1c0,0,0,0,0.1,0
	c0.2-0.1,0.6-0.2,0.9-0.4c0.7-0.4,1.1-1.2,1.3-2.2c0-0.2,0-0.7,0-0.9c-0.1-0.6-0.3-1.1-0.8-1.5c-0.5-0.6-1.4-1.1-2.5-1.5
	c-0.1,0-0.2-0.1-0.2-0.1c0,0,0.2-0.7,0.3-1.4s0.4-1.4,0.4-1.4c0,0-1.7-0.5-1.8-0.4c0,0-0.2,0.6-0.4,1.4c-0.2,0.8-0.3,1.4-0.4,1.4
	c0,0-0.1,0-0.1,0c-0.1,0-0.4-0.1-0.7-0.2c-0.3-0.1-0.6-0.1-0.6-0.1c0,0,0-0.1,0.3-1.4c0.2-0.8,0.4-1.4,0.4-1.4c0,0-1.8-0.4-1.8-0.4
	c0,0-0.2,0.7-0.4,1.4c-0.2,0.8-0.4,1.4-0.4,1.4c0,0-0.6-0.1-0.9-0.2c-0.7-0.2-2.6-0.7-2.6-0.7c0,0-0.5,1.9-0.5,1.9
	c0,0,0.1,0,0.3,0.1c0.8,0.2,1.2,0.3,1.4,0.4c0.1,0.1,0.3,0.2,0.4,0.4c0.1,0.1,0.1,0.3,0.1,0.4c0,0.1-2,8-2,8.1
	c-0.1,0.1-0.2,0.2-0.3,0.3c-0.2,0.1-0.3,0.1-1.5-0.2c-0.1,0-0.3-0.1-0.3-0.1c0,0-0.9,2-0.9,2c0,0,0.6,0.1,1.3,0.3
	c1.2,0.3,2.3,0.6,2.3,0.6c0,0-0.2,0.7-0.4,1.5c-0.2,0.8-0.4,1.5-0.4,1.5c0,0,1.8,0.4,1.8,0.4c0,0,0.2-0.7,0.4-1.4
	c0.2-0.8,0.4-1.4,0.4-1.4c0,0,0.2,0,0.4,0.1c0.2,0.1,0.5,0.1,0.7,0.2l0.3,0.1l-0.4,1.4c-0.2,0.8-0.4,1.4-0.4,1.4
	c0,0,1.7,0.4,1.7,0.4C171.4,57.1,171.5,56.8,171.7,55.6L171.7,55.6z M172.4,51.8c-0.7-0.1-1.4-0.2-2.3-0.4c-0.2,0-0.3-0.1-0.4-0.1
	c-0.1,0-0.1,0-0.1-0.1c0,0,0.2-0.9,0.5-1.9l0.5-1.9l0.2,0c0.1,0,0.3,0.1,0.5,0.1c1.7,0.4,2.7,0.8,3.3,1.4c0.2,0.2,0.3,0.4,0.4,0.7
	c0.1,0.2,0.1,0.5,0,0.7c-0.1,0.8-0.6,1.2-1.5,1.4c-0.1,0-0.3,0-0.6,0C172.6,51.8,172.4,51.8,172.4,51.8L172.4,51.8z M173.1,46.1
	c-0.3,0-0.8-0.1-1.2-0.2c-0.2,0-1-0.3-1.1-0.3c0,0,0.9-3.5,0.9-3.5c0,0,1.3,0.3,1.6,0.4c1,0.3,1.7,0.8,1.9,1.3
	c0.1,0.2,0.1,0.3,0.1,0.6c0,0.2,0,0.3,0,0.4c-0.1,0.3-0.2,0.5-0.4,0.7c-0.3,0.3-0.6,0.4-1.1,0.5C173.8,46.1,173.3,46.1,173.1,46.1
	L173.1,46.1z"/>
<path id="path5006" inkscape:connector-curvature="0" inkscape:export-xdpi="90" inkscape:export-ydpi="90" class="st1" d="
	M171.8,106.4c-0.6,0-1-0.1-1.4-0.1c-3.9-0.5-7.6-2.4-10.2-5.5c-1.5-1.7-2.6-3.8-3.2-5.9c-0.3-0.9-0.5-1.9-0.6-2.9
	c-0.1-0.9-0.1-1.9,0-2.8c0.2-2.7,1.1-5.2,2.5-7.5c0.4-0.6,0.8-1.2,1.2-1.7c0.5-0.6,1.2-1.3,1.8-1.8c2.9-2.5,6.6-3.8,10.4-3.8
	c3,0,6,0.8,8.5,2.5c1,0.6,1.9,1.3,2.7,2.1c1.3,1.3,2.3,2.7,3.1,4.3c0.9,1.8,1.4,3.7,1.6,5.7c0,0.5,0.1,0.7,0.1,1.4
	c0,0.7,0,0.9-0.1,1.4c-0.3,3-1.3,5.8-3.1,8.2c-0.7,1-1.6,1.9-2.6,2.7c-1.7,1.4-3.7,2.4-5.7,3.1c-1.1,0.3-2.2,0.5-3.4,0.6
	C173.2,106.4,172.1,106.4,171.8,106.4L171.8,106.4z M179.3,96.3c0.2-0.8,0.4-1.6,0.4-1.6l0,0h-4.1c-2.3,0-4.1,0-4.1,0
	c0,0,1-3.9,1-3.9c0,0,0.6-0.2,1.2-0.5c0.7-0.2,1.2-0.5,1.2-0.5c0,0,0.6-2.3,0.6-2.3c0,0,0,0,0,0c-0.1,0.1-2.4,0.9-2.4,0.9
	c0,0,0.4-1.5,0.9-3.2c0.5-1.8,0.9-3.3,0.9-3.3l0,0h-2.5c-2.3,0-2.5,0-2.5,0c0,0-0.5,1.9-1.1,4.3c-0.6,2.3-1.1,4.3-1.1,4.3
	c0,0-1.9,0.7-1.9,0.7c0,0,0,0,0,0c0,0-0.6,2.3-0.6,2.3c0,0,0.4-0.2,0.9-0.3c0.5-0.2,0.9-0.3,0.9-0.3c0,0-0.3,1.1-0.7,2.5
	c-0.4,1.4-0.7,2.5-0.7,2.5c0,0,1.7,0,6.6,0l6.6,0L179.3,96.3L179.3,96.3z"/>
<path id="path5008" inkscape:connector-curvature="0" inkscape:export-xdpi="90" inkscape:export-ydpi="90" class="st1" d="
	M172.5,114.8c-8.8,0-16,7.2-16,16s7.2,16,16,16s16-7.2,16-16S181.4,114.8,172.5,114.8z M172.7,120.7l6.5,10.3l-6.4,3.6l-6.5-3.7
	L172.7,120.7L172.7,120.7z M166.1,132.1l6.6,3.7l6.3-3.7l-6.3,8.4L166.1,132.1L166.1,132.1z"/>
<path id="path5010" inkscape:connector-curvature="0" inkscape:export-xdpi="90" inkscape:export-ydpi="90" class="st1" d="
	M173.1,163.4c-8.8,0-16,7.2-16,16c0,8.8,7.2,16,16,16s16-7.2,16-16C189.1,170.6,181.9,163.4,173.1,163.4z M173.2,170.9
	c1.2,0,2.2,0.1,2.9,0.4c0.7,0.3,1.3,0.7,1.8,1.4c0.5,0.6,0.8,1.4,1,2.3l-4.1,0.6c-0.2-0.8-0.4-1.3-0.7-1.5c-0.3-0.3-0.6-0.4-0.9-0.4
	c-0.4,0-0.8,0.1-1,0.4c-0.3,0.3-0.4,0.7-0.4,1.2c0,0.3,0,0.5,0.1,0.8c0.1,0.2,0.2,0.8,0.5,1.7h3.3v2.6h-2.9c0,0.6-0.1,1.2-0.3,1.6
	c-0.2,0.4-0.4,0.8-0.8,1.2c0.4-0.1,0.7-0.1,1-0.1c0.4,0,0.8,0.1,1.4,0.2c0.8,0.2,1.4,0.3,1.9,0.3c0.4,0,0.7,0,1-0.1
	c0.3-0.1,0.7-0.2,1.1-0.4l1.5,3.2c-0.7,0.4-1.3,0.6-1.9,0.7c-0.5,0.1-1.1,0.2-1.7,0.2c-0.7,0-1.4-0.1-2.3-0.4
	c-1.1-0.3-1.8-0.5-2.1-0.5c-0.3-0.1-0.6-0.1-0.9-0.1c-0.9,0-1.9,0.3-3.1,1l-1.4-3.1c1.5-1.1,2.3-2.2,2.3-3.2c0-0.1,0-0.2,0-0.5h-2.2
	v-2.6h1.6c-0.3-0.9-0.4-1.5-0.5-1.6c0-0.2-0.1-0.5-0.1-0.8c0-0.9,0.2-1.7,0.7-2.4c0.5-0.7,1.1-1.2,1.9-1.6
	C170.8,171.1,171.9,170.9,173.2,170.9L173.2,170.9z"/>
<path id="path5012" inkscape:connector-curvature="0" inkscape:export-xdpi="90" inkscape:export-ydpi="90" class="st1" d="
	M173.1,211.4c-8.8,0-16,7.2-16,16s7.2,16,16,16s16-7.2,16-16S181.9,211.4,173.1,211.4z M172.5,217.7h1.6v1.1
	c1.6,0.1,2.8,0.5,3.7,1.1c0.9,0.7,1.4,1.6,1.7,2.7l-4,0.6c-0.2-0.5-0.4-0.9-0.5-1.1c-0.2-0.2-0.4-0.4-0.8-0.6v3.1
	c2.2,0.6,3.6,1.2,4.4,1.8c1,0.9,1.5,2,1.5,3.3c0,0.8-0.2,1.5-0.5,2.1c-0.3,0.7-0.8,1.2-1.3,1.6c-0.5,0.4-1.1,0.8-1.7,1
	c-0.6,0.2-1.4,0.3-2.2,0.3v2h-1.6v-2c-1.1-0.1-1.9-0.3-2.6-0.5c-0.7-0.3-1.2-0.6-1.7-1c-0.5-0.4-0.8-0.9-1.1-1.4
	c-0.3-0.5-0.5-1.1-0.6-1.8l4.3-0.5c0.1,0.7,0.3,1.2,0.5,1.5c0.2,0.3,0.6,0.6,1.1,0.8v-3.8c-1.4-0.4-2.5-0.7-3.1-1
	c-0.6-0.3-1.1-0.8-1.6-1.4c-0.4-0.7-0.7-1.4-0.7-2.4c0-1.3,0.4-2.3,1.3-3.2c0.9-0.9,2.2-1.3,4-1.4V217.7z M172.5,221.5
	c-0.5,0.2-0.8,0.3-1,0.6c-0.2,0.2-0.3,0.5-0.3,0.8c0,0.3,0.1,0.6,0.3,0.8c0.2,0.2,0.5,0.4,1,0.6V221.5z M174.1,228.7v3.4
	c0.6-0.1,1.1-0.4,1.3-0.7c0.3-0.3,0.4-0.7,0.4-1.1c0-0.3-0.1-0.6-0.4-0.9C175.2,229.2,174.8,228.9,174.1,228.7z"/>
<g id="g5014" transform="translate(80,0)">
</g>
<path id="path5016" inkscape:connector-curvature="0" inkscape:export-xdpi="90" inkscape:export-ydpi="90" class="st1" d="
	M173.1,259.4c-8.8,0-16,7.2-16,16s7.2,16,16,16s16-7.2,16-16S181.9,259.4,173.1,259.4z M175.2,267.4c1.4,0,2.8,0.4,4.2,1.1l-1,3.9
	c-1-0.9-2-1.3-3.1-1.3c-1.4,0-2.3,0.6-2.8,1.9h3.9l-0.5,2h-3.8c0,0.1,0,0.4,0,0.6v0.6h4l-0.5,2h-3.3c0.4,1.3,1.3,2,2.8,2
	c1.5,0,3-0.5,4.3-1.5v4c-1.1,0.8-2.5,1.1-4.1,1.1c-2.6,0-4.4-0.6-5.7-1.8c-1.2-1.2-2-2.5-2.2-3.9h-1.9l0.5-2h1.2c0-0.1,0-0.3,0-0.6
	c0-0.3,0-0.5,0-0.6h-1.4l0.5-2h1.2C168.5,269.2,171,267.4,175.2,267.4L175.2,267.4z"/>
<path id="path5018" inkscape:connector-curvature="0" inkscape:export-xdpi="90" inkscape:export-ydpi="90" class="st1" d="
	M173.1,307.4c-8.8,0-16,7.2-16,16s7.2,16,16,16s16-7.2,16-16S181.9,307.4,173.1,307.4z M161.1,319.7h2.4v5.9h3.8v1.9h-6.2V319.7z
	 M168.4,319.7h2.4v3l2.5-3h3.2l-2.9,3l3,4.9h-3l-1.7-3.2l-1.3,1.3v1.9h-2.4V319.7z M177.5,319.7h4c0.7,0,1.3,0.1,1.7,0.2
	c0.4,0.1,0.7,0.4,1,0.7c0.2,0.3,0.4,0.8,0.4,1.3c0,0.4-0.1,0.8-0.3,1.1c-0.2,0.3-0.4,0.6-0.8,0.8c-0.2,0.1-0.5,0.2-0.9,0.3
	c0.3,0.1,0.5,0.2,0.6,0.3c0.1,0.1,0.2,0.2,0.4,0.4c0.2,0.2,0.3,0.4,0.3,0.5l1.2,2.3h-2.7l-1.3-2.4c-0.2-0.3-0.3-0.5-0.4-0.6
	c-0.2-0.1-0.4-0.2-0.6-0.2H180v3.2h-2.4L177.5,319.7L177.5,319.7z M180,321.3v1.6h1c0.1,0,0.3,0,0.6-0.1c0.2,0,0.3-0.1,0.4-0.2
	c0.1-0.1,0.2-0.3,0.2-0.5c0-0.3-0.1-0.4-0.2-0.6c-0.2-0.1-0.5-0.2-0.9-0.2H180L180,321.3z"/>
<path id="path5039" inkscape:connector-curvature="0" inkscape:export-xdpi="90" inkscape:export-ydpi="90" class="st6" d="
	M235.1,63.2c-1.7-0.1-3.4-0.4-5-1.1c-3.3-1.3-6.1-3.6-8-6.7c-1.1-1.8-1.8-3.7-2.1-5.8c-0.1-0.8-0.2-1.4-0.2-2.2
	c0-1.2,0.1-2.2,0.3-3.3c0.7-3.5,2.5-6.6,5.2-9c1.8-1.6,4-2.7,6.3-3.4c2-0.5,4.1-0.7,6.1-0.5c4.1,0.5,7.9,2.5,10.5,5.7
	c0.8,0.9,1.4,1.9,1.9,2.9c1,2,1.6,4.1,1.7,6.4c0,0.4,0,1.6,0,1.9c-0.1,1-0.2,1.9-0.4,2.8c-0.4,1.8-1.2,3.4-2.2,5
	c-1.9,2.9-4.8,5.2-8.2,6.3c-1.4,0.5-2.7,0.7-4.3,0.8C236.5,63.2,235.3,63.2,235.1,63.2L235.1,63.2z M235.7,55.6
	c0.2-0.8,0.4-1.4,0.4-1.5c0,0,0.1,0,0.4,0c0.8,0.1,1.2,0.2,1.9,0.2c0.5,0,0.8,0,1.1-0.1c0.8-0.2,1.5-0.5,2-1.1
	c0.5-0.6,0.9-1.5,1-2.4c0-0.3,0-0.9,0-1.1c-0.1-0.6-0.4-1-0.8-1.5c-0.2-0.2-0.6-0.5-0.9-0.7c-0.1,0-0.1-0.1-0.1-0.1c0,0,0,0,0.1,0
	c0.2-0.1,0.6-0.2,0.9-0.4c0.7-0.4,1.1-1.2,1.3-2.2c0-0.2,0-0.7,0-0.9c-0.1-0.6-0.3-1.1-0.8-1.5c-0.5-0.6-1.4-1.1-2.5-1.5
	c-0.1,0-0.2-0.1-0.2-0.1c0,0,0.2-0.7,0.3-1.4c0.2-0.8,0.4-1.4,0.4-1.4c0,0-1.7-0.5-1.8-0.4c0,0-0.2,0.6-0.4,1.4
	c-0.2,0.8-0.3,1.4-0.4,1.4c0,0-0.1,0-0.1,0c-0.1,0-0.4-0.1-0.7-0.2c-0.3-0.1-0.6-0.1-0.6-0.1c0,0,0-0.1,0.3-1.4
	c0.2-0.8,0.4-1.4,0.4-1.4c0,0-1.8-0.4-1.8-0.4c0,0-0.2,0.7-0.4,1.4c-0.2,0.8-0.4,1.4-0.4,1.4c0,0-0.6-0.1-0.9-0.2
	c-0.7-0.2-2.6-0.7-2.6-0.7c0,0-0.5,1.9-0.5,1.9c0,0,0.1,0,0.3,0.1c0.8,0.2,1.2,0.3,1.4,0.4c0.1,0.1,0.3,0.2,0.4,0.4
	c0.1,0.1,0.1,0.3,0.1,0.4c0,0.1-2,8-2,8.1c-0.1,0.1-0.2,0.2-0.3,0.3c-0.2,0.1-0.3,0.1-1.5-0.2c-0.1,0-0.3-0.1-0.3-0.1
	c0,0-0.9,2-0.9,2c0,0,0.6,0.1,1.3,0.3c1.2,0.3,2.3,0.6,2.3,0.6c0,0-0.2,0.7-0.4,1.5c-0.2,0.8-0.4,1.5-0.4,1.5c0,0,1.8,0.4,1.8,0.4
	c0,0,0.2-0.7,0.4-1.4c0.2-0.8,0.4-1.4,0.4-1.4c0,0,0.2,0,0.4,0.1c0.2,0.1,0.5,0.1,0.7,0.2l0.3,0.1l-0.4,1.4
	c-0.2,0.8-0.4,1.4-0.4,1.4c0,0,1.7,0.4,1.7,0.4C235.4,57.1,235.5,56.8,235.7,55.6L235.7,55.6z M236.4,51.8c-0.7-0.1-1.4-0.2-2.3-0.4
	c-0.2,0-0.3-0.1-0.4-0.1c-0.1,0-0.1,0-0.1-0.1c0,0,0.2-0.9,0.5-1.9l0.5-1.9l0.2,0c0.1,0,0.3,0.1,0.5,0.1c1.7,0.4,2.7,0.8,3.3,1.4
	c0.2,0.2,0.3,0.4,0.4,0.7c0.1,0.2,0.1,0.5,0,0.7c-0.1,0.8-0.6,1.2-1.5,1.4c-0.1,0-0.3,0-0.6,0C236.6,51.8,236.4,51.8,236.4,51.8
	L236.4,51.8z M237.1,46.1c-0.3,0-0.8-0.1-1.2-0.2c-0.2,0-1-0.3-1.1-0.3c0,0,0.9-3.5,0.9-3.5c0,0,1.3,0.3,1.6,0.4
	c1,0.3,1.7,0.8,1.9,1.3c0.1,0.2,0.1,0.3,0.1,0.6c0,0.2,0,0.3,0,0.4c-0.1,0.3-0.2,0.5-0.4,0.7c-0.3,0.3-0.6,0.4-1.1,0.5
	C237.8,46.1,237.3,46.1,237.1,46.1L237.1,46.1z"/>
<path id="path5041" inkscape:connector-curvature="0" inkscape:export-xdpi="90" inkscape:export-ydpi="90" class="st6" d="
	M235.8,106.4c-0.6,0-1-0.1-1.4-0.1c-3.9-0.5-7.6-2.4-10.2-5.5c-1.5-1.7-2.6-3.8-3.2-5.9c-0.3-0.9-0.5-1.9-0.6-2.9
	c-0.1-0.9-0.1-1.9,0-2.8c0.2-2.7,1.1-5.2,2.5-7.5c0.4-0.6,0.8-1.2,1.2-1.7c0.5-0.6,1.2-1.3,1.8-1.8c2.9-2.5,6.6-3.8,10.4-3.8
	c3,0,6,0.8,8.5,2.5c1,0.6,1.9,1.3,2.7,2.1c1.3,1.3,2.3,2.7,3.1,4.3c0.9,1.8,1.4,3.7,1.6,5.7c0,0.5,0.1,0.7,0.1,1.4
	c0,0.7,0,0.9-0.1,1.4c-0.3,3-1.3,5.8-3.1,8.2c-0.7,1-1.6,1.9-2.6,2.7c-1.7,1.4-3.7,2.4-5.7,3.1c-1.1,0.3-2.2,0.5-3.4,0.6
	C237.2,106.4,236.1,106.4,235.8,106.4L235.8,106.4z M243.3,96.3c0.2-0.8,0.4-1.6,0.4-1.6l0,0h-4.1c-2.3,0-4.1,0-4.1,0
	c0,0,1-3.9,1-3.9c0,0,0.6-0.2,1.2-0.5s1.2-0.5,1.2-0.5c0,0,0.6-2.3,0.6-2.3c0,0,0,0,0,0c-0.1,0.1-2.4,0.9-2.4,0.9
	c0,0,0.4-1.5,0.9-3.2c0.5-1.8,0.9-3.3,0.9-3.3l0,0h-2.5c-2.3,0-2.5,0-2.5,0c0,0-0.5,1.9-1.1,4.3c-0.6,2.3-1.1,4.3-1.1,4.3
	c0,0-1.9,0.7-1.9,0.7c0,0,0,0,0,0c0,0-0.6,2.3-0.6,2.3c0,0,0.4-0.2,0.9-0.3c0.5-0.2,0.9-0.3,0.9-0.3c0,0-0.3,1.1-0.7,2.5
	c-0.4,1.4-0.7,2.5-0.7,2.5c0,0,1.7,0,6.6,0l6.6,0L243.3,96.3L243.3,96.3z"/>
<path id="path5043" inkscape:connector-curvature="0" inkscape:export-xdpi="90" inkscape:export-ydpi="90" class="st6" d="
	M236.5,114.8c-8.8,0-16,7.2-16,16s7.2,16,16,16s16-7.2,16-16S245.4,114.8,236.5,114.8z M236.7,120.7l6.5,10.3l-6.4,3.6l-6.5-3.7
	L236.7,120.7L236.7,120.7z M230.1,132.1l6.6,3.7l6.3-3.7l-6.3,8.4L230.1,132.1L230.1,132.1z"/>
<path id="path5045" inkscape:connector-curvature="0" inkscape:export-xdpi="90" inkscape:export-ydpi="90" class="st6" d="
	M237.1,163.4c-8.8,0-16,7.2-16,16c0,8.8,7.2,16,16,16s16-7.2,16-16C253.1,170.6,245.9,163.4,237.1,163.4z M237.2,170.9
	c1.2,0,2.2,0.1,2.9,0.4c0.7,0.3,1.3,0.7,1.8,1.4c0.5,0.6,0.8,1.4,1,2.3l-4.1,0.6c-0.2-0.8-0.4-1.3-0.7-1.5c-0.3-0.3-0.6-0.4-0.9-0.4
	c-0.4,0-0.8,0.1-1,0.4c-0.3,0.3-0.4,0.7-0.4,1.2c0,0.3,0,0.5,0.1,0.8c0.1,0.2,0.2,0.8,0.5,1.7h3.3v2.6h-2.9c0,0.6-0.1,1.2-0.3,1.6
	c-0.2,0.4-0.4,0.8-0.8,1.2c0.4-0.1,0.7-0.1,1-0.1c0.4,0,0.8,0.1,1.4,0.2c0.8,0.2,1.4,0.3,1.9,0.3c0.4,0,0.7,0,1-0.1
	c0.3-0.1,0.7-0.2,1.1-0.4l1.5,3.2c-0.7,0.4-1.3,0.6-1.9,0.7c-0.5,0.1-1.1,0.2-1.7,0.2c-0.7,0-1.4-0.1-2.3-0.4
	c-1.1-0.3-1.8-0.5-2.1-0.5c-0.3-0.1-0.6-0.1-0.9-0.1c-0.9,0-1.9,0.3-3.1,1l-1.4-3.1c1.5-1.1,2.3-2.2,2.3-3.2c0-0.1,0-0.2,0-0.5h-2.2
	v-2.6h1.6c-0.3-0.9-0.4-1.5-0.5-1.6c0-0.2-0.1-0.5-0.1-0.8c0-0.9,0.2-1.7,0.7-2.4c0.5-0.7,1.1-1.2,1.9-1.6
	C234.8,171.1,235.9,170.9,237.2,170.9L237.2,170.9z"/>
<path id="path5047" inkscape:connector-curvature="0" inkscape:export-xdpi="90" inkscape:export-ydpi="90" class="st6" d="
	M237.1,211.4c-8.8,0-16,7.2-16,16s7.2,16,16,16s16-7.2,16-16S245.9,211.4,237.1,211.4z M236.5,217.7h1.6v1.1
	c1.6,0.1,2.8,0.5,3.7,1.1c0.9,0.7,1.4,1.6,1.7,2.7l-4,0.6c-0.2-0.5-0.4-0.9-0.5-1.1c-0.2-0.2-0.4-0.4-0.8-0.6v3.1
	c2.2,0.6,3.6,1.2,4.4,1.8c1,0.9,1.5,2,1.5,3.3c0,0.8-0.2,1.5-0.5,2.1c-0.3,0.7-0.8,1.2-1.3,1.6c-0.5,0.4-1.1,0.8-1.7,1
	c-0.6,0.2-1.4,0.3-2.2,0.3v2h-1.6v-2c-1.1-0.1-1.9-0.3-2.6-0.5c-0.7-0.3-1.2-0.6-1.7-1c-0.5-0.4-0.8-0.9-1.1-1.4
	c-0.3-0.5-0.5-1.1-0.6-1.8l4.3-0.5c0.1,0.7,0.3,1.2,0.5,1.5c0.2,0.3,0.6,0.6,1.1,0.8v-3.8c-1.4-0.4-2.5-0.7-3.1-1
	c-0.6-0.3-1.1-0.8-1.6-1.4c-0.4-0.7-0.7-1.4-0.7-2.4c0-1.3,0.4-2.3,1.3-3.2c0.9-0.9,2.2-1.3,4-1.4V217.7z M236.5,221.5
	c-0.5,0.2-0.8,0.3-1,0.6c-0.2,0.2-0.3,0.5-0.3,0.8c0,0.3,0.1,0.6,0.3,0.8c0.2,0.2,0.5,0.4,1,0.6V221.5z M238.1,228.7v3.4
	c0.6-0.1,1.1-0.4,1.3-0.7c0.3-0.3,0.4-0.7,0.4-1.1c0-0.3-0.1-0.6-0.4-0.9C239.2,229.2,238.8,228.9,238.1,228.7z"/>
<path id="path5049" inkscape:connector-curvature="0" inkscape:export-xdpi="90" inkscape:export-ydpi="90" class="st6" d="
	M237.1,259.4c-8.8,0-16,7.2-16,16s7.2,16,16,16s16-7.2,16-16S245.9,259.4,237.1,259.4z M239.2,267.4c1.4,0,2.8,0.4,4.2,1.1l-1,3.9
	c-1-0.9-2-1.3-3.1-1.3c-1.4,0-2.3,0.6-2.8,1.9h3.9l-0.5,2h-3.8c0,0.1,0,0.4,0,0.6v0.6h4l-0.5,2h-3.3c0.4,1.3,1.3,2,2.8,2
	c1.5,0,3-0.5,4.3-1.5v4c-1.1,0.8-2.5,1.1-4.1,1.1c-2.6,0-4.4-0.6-5.7-1.8c-1.2-1.2-2-2.5-2.2-3.9h-1.9l0.5-2h1.2c0-0.1,0-0.3,0-0.6
	c0-0.3,0-0.5,0-0.6h-1.4l0.5-2h1.2C232.5,269.2,235,267.4,239.2,267.4z"/>
<path id="path5051" inkscape:connector-curvature="0" inkscape:export-xdpi="90" inkscape:export-ydpi="90" class="st6" d="
	M237.1,307.4c-8.8,0-16,7.2-16,16s7.2,16,16,16s16-7.2,16-16S245.9,307.4,237.1,307.4z M225.1,319.7h2.4v5.9h3.8v1.9h-6.2V319.7z
	 M232.4,319.7h2.4v3l2.5-3h3.2l-2.9,3l3,4.9h-3l-1.7-3.2l-1.3,1.3v1.9h-2.4V319.7z M241.5,319.7h4c0.7,0,1.3,0.1,1.7,0.2
	c0.4,0.1,0.7,0.4,1,0.7c0.2,0.3,0.4,0.8,0.4,1.3c0,0.4-0.1,0.8-0.3,1.1c-0.2,0.3-0.4,0.6-0.8,0.8c-0.2,0.1-0.5,0.2-0.9,0.3
	c0.3,0.1,0.5,0.2,0.6,0.3c0.1,0.1,0.2,0.2,0.4,0.4c0.2,0.2,0.3,0.4,0.3,0.5l1.2,2.3h-2.7l-1.3-2.4c-0.2-0.3-0.3-0.5-0.4-0.6
	c-0.2-0.1-0.4-0.2-0.6-0.2H244v3.2h-2.4V319.7z M244,321.3v1.6h1c0.1,0,0.3,0,0.6-0.1c0.2,0,0.3-0.1,0.4-0.2
	c0.1-0.1,0.2-0.3,0.2-0.5c0-0.3-0.1-0.4-0.2-0.6c-0.2-0.1-0.5-0.2-0.9-0.2H244z"/>
<ellipse id="ellipse4327" class="st0" cx="351.6" cy="504.7" rx="26.4" ry="25.8"/>
<ellipse id="ellipse4329" class="st0" cx="352.4" cy="415.2" rx="26.4" ry="25.8"/>
<ellipse id="ellipse4331" class="st0" cx="353.3" cy="583.4" rx="26.4" ry="25.8"/>
<path id="path4246" inkscape:connector-curvature="0" inkscape:export-filename="/Users/sparwana/Business/Kripter International Solutions/Products/Kripter Exchange/graphics/currency icons/gbp_logo.png" inkscape:export-xdpi="90" inkscape:export-ydpi="90" class="st1" d="
	M351.1,473.2c-17.2,0-31.2,14-31.2,31.2c0,17.2,14,31.2,31.2,31.2l0,0c17.2,0,31.2-14,31.2-31.2l0,0
	C382.3,487.2,368.3,473.2,351.1,473.2z M351.3,487.8c2.4,0,4.3,0.3,5.7,0.8c1.4,0.5,2.6,1.4,3.6,2.7c1,1.2,1.6,2.8,2,4.5l-8,1.3
	c-0.4-1.5-0.9-2.5-1.4-3c-0.5-0.5-1.1-0.7-1.8-0.7c-0.8,0-1.5,0.3-2,0.8c-0.5,0.5-0.8,1.3-0.8,2.3c0,0.5,0.1,1,0.1,1.5
	c0.1,0.5,0.4,1.6,1,3.4h6.3v5h-5.6c-0.1,1.2-0.3,2.3-0.6,3.2c-0.3,0.7-0.8,1.5-1.5,2.3c0.8-0.2,1.5-0.3,2-0.3c0.7,0,1.6,0.1,2.8,0.4
	c1.6,0.4,2.8,0.5,3.8,0.5c0.8,0,1.4-0.1,2-0.2c0.6-0.1,1.3-0.4,2.2-0.8l2.8,6.2c-1.4,0.7-2.6,1.2-3.6,1.4c-1,0.3-2.2,0.4-3.4,0.4
	c-1.3,0-2.8-0.2-4.5-0.7c-2.2-0.6-3.6-1-4.1-1.1c-0.5-0.1-1.1-0.1-1.7-0.1c-1.8,0-3.8,0.6-6,1.9l-2.7-5.9c2.9-2.1,4.4-4.2,4.4-6.3
	c0-0.1,0-0.4,0-0.9H338v-5h3.1c-0.5-1.8-0.8-2.9-0.9-3.2c-0.1-0.4-0.1-1-0.1-1.7c0-1.7,0.5-3.3,1.4-4.7c0.9-1.4,2.2-2.4,3.7-3
	C346.7,488.2,348.7,487.8,351.3,487.8L351.3,487.8z"/>
<path id="path4250" inkscape:connector-curvature="0" inkscape:export-filename="/Users/sparwana/Business/Kripter International Solutions/Products/Kripter Exchange/graphics/currency icons/eur_logo.png" inkscape:export-xdpi="90" inkscape:export-ydpi="90" class="st1" d="
	M351.8,384c-17.2,0-31.2,14-31.2,31.2c0,0,0,0,0,0c0,17.2,14,31.2,31.2,31.2c17.2,0,31.2-14,31.2-31.2S369,384,351.8,384L351.8,384z
	 M355.9,399.5c2.7,0,5.4,0.7,8.1,2.1l-1.9,7.6c-1.9-1.7-3.9-2.6-6-2.6c-2.7,0-4.5,1.2-5.5,3.6h7.5l-0.9,3.8H350c0,0.3,0,0.7,0,1.2
	v1.1h7.8l-0.9,3.8h-6.3c0.8,2.6,2.6,3.9,5.4,3.9c3,0,5.8-1,8.5-2.9v7.8c-2.2,1.5-4.8,2.2-7.9,2.2c-5,0-8.7-1.1-11.1-3.4
	c-2.4-2.3-3.8-4.8-4.4-7.6h-3.8l1-3.8h2.3c0-0.2,0-0.6,0-1.1c0-0.6,0-1,0-1.2h-2.8l1-3.8h2.3C342.8,403.1,347.8,399.5,355.9,399.5
	L355.9,399.5z"/>
<path id="path4252" inkscape:connector-curvature="0" inkscape:export-filename="/Users/sparwana/Business/Kripter International Solutions/Products/Kripter Exchange/graphics/currency icons/lkr_logo.png" inkscape:export-xdpi="90" inkscape:export-ydpi="90" class="st1" d="
	M352.5,552.4c-17.2,0-31.2,14-31.2,31.2c0,17.2,14,31.2,31.2,31.2c17.2,0,31.2-14,31.2-31.2C383.7,566.3,369.7,552.4,352.5,552.4z
	 M329.1,576.3h4.7v11.5h7.4v3.8h-12.1V576.3z M343.4,576.3h4.7v5.8l5-5.8h6.3l-5.6,5.8l5.8,9.5h-5.8l-3.2-6.3l-2.4,2.6v3.7h-4.7
	V576.3z M361.2,576.3h7.9c1.5,0,2.6,0.1,3.3,0.4c0.8,0.3,1.4,0.7,1.9,1.4c0.5,0.7,0.7,1.5,0.7,2.5c0,0.8-0.2,1.6-0.5,2.2
	c-0.4,0.6-0.9,1.1-1.5,1.5c-0.4,0.2-1,0.4-1.7,0.6c0.6,0.2,1,0.4,1.2,0.6c0.2,0.1,0.4,0.4,0.8,0.8c0.3,0.4,0.6,0.7,0.7,0.9l2.3,4.4
	h-5.3l-2.5-4.7c-0.3-0.6-0.6-1-0.9-1.2c-0.3-0.2-0.7-0.4-1.2-0.4h-0.4v6.2h-4.7V576.3z M365.9,579.4v3.1h2c0.2,0,0.6-0.1,1.3-0.2
	c0.3-0.1,0.6-0.2,0.8-0.5c0.2-0.3,0.3-0.6,0.3-0.9c0-0.5-0.2-0.9-0.5-1.1c-0.3-0.3-0.9-0.4-1.8-0.4L365.9,579.4L365.9,579.4z"/>
<g id="g3458" transform="translate(-113.50732,-3.3384507)" inkscape:export-filename="/Users/sparwana/Business/Kripter International Solutions/Products/Kripter Exchange/graphics/currency icons/btc_logo.png" inkscape:export-xdpi="90" inkscape:export-ydpi="90">
	<ellipse id="path3438" class="st2" cx="464" cy="63" rx="24.2" ry="23.8"/>
	<path id="path3436" inkscape:connector-curvature="0" inkscape:export-xdpi="90" inkscape:export-ydpi="90" class="st7" d="
		M462.8,94.7c-3.4-0.2-6.6-0.9-9.7-2.1c-6.5-2.5-12-7.1-15.6-13.1c-2.1-3.4-3.5-7.3-4.1-11.2c-0.2-1.5-0.3-2.7-0.4-4.3
		c0-2.4,0.1-4.3,0.6-6.5c1.4-6.8,4.9-12.9,10.1-17.5c3.5-3.1,7.7-5.3,12.2-6.6c3.9-1.1,7.9-1.4,11.9-0.9c8.1,1,15.4,5,20.5,11.2
		c1.5,1.8,2.7,3.6,3.7,5.7c2,3.9,3.1,8,3.3,12.5c0,0.7,0,3.1,0,3.7c-0.2,2-0.4,3.6-0.9,5.4c-0.9,3.5-2.3,6.7-4.3,9.7
		c-3.8,5.7-9.5,10.1-16,12.3c-2.7,0.9-5.3,1.4-8.3,1.6C465.7,94.7,463.3,94.7,462.8,94.7L462.8,94.7z M464.1,79.9
		c0.4-1.5,0.7-2.8,0.7-2.8c0,0,0.2,0,0.7,0.1c1.6,0.3,2.4,0.3,3.7,0.3c1,0,1.5,0,2.2-0.2c1.6-0.3,3-1.1,3.9-2.2c1-1.1,1.7-2.9,2-4.6
		c0.1-0.5,0.1-1.7,0-2.1c-0.2-1.1-0.7-2-1.5-2.8c-0.4-0.4-1.1-0.9-1.8-1.3c-0.1-0.1-0.3-0.2-0.3-0.2c0,0,0.1,0,0.2-0.1
		c0.5-0.1,1.2-0.4,1.7-0.7c1.4-0.9,2.2-2.3,2.5-4.3c0.1-0.4,0.1-1.4,0-1.8c-0.2-1.2-0.7-2.1-1.5-3c-1.1-1.1-2.7-2.1-4.9-2.9
		c-0.2-0.1-0.5-0.2-0.5-0.2c0,0,0.3-1.3,0.7-2.8c0.4-1.5,0.7-2.8,0.7-2.8c0,0-3.4-0.9-3.4-0.9c0,0-0.3,1.2-0.7,2.7
		c-0.4,1.5-0.7,2.7-0.7,2.7c0,0-0.1,0-0.2,0c-0.1,0-0.7-0.2-1.3-0.3c-0.6-0.1-1.1-0.3-1.1-0.3c-0.1,0,0-0.1,0.6-2.8
		c0.4-1.5,0.7-2.8,0.7-2.8c0,0-3.4-0.9-3.4-0.9c0,0-0.3,1.3-0.7,2.8c-0.4,1.5-0.7,2.8-0.7,2.8c0,0-1.3-0.3-1.8-0.4
		c-1.3-0.3-5.1-1.3-5.1-1.3c0,0-0.9,3.7-0.9,3.7c0,0,0.2,0.1,0.5,0.1c1.6,0.4,2.3,0.6,2.7,0.8c0.3,0.2,0.6,0.5,0.7,0.7
		c0.1,0.2,0.2,0.6,0.2,0.8c0,0.2-3.8,15.5-3.9,15.7c-0.1,0.2-0.3,0.5-0.5,0.6c-0.4,0.2-0.7,0.2-2.9-0.4c-0.3-0.1-0.5-0.1-0.6-0.1
		c0,0-1.7,3.9-1.7,3.9c0,0,1.1,0.3,2.5,0.6c2.4,0.6,4.4,1.1,4.4,1.1c0,0-0.3,1.3-0.7,2.8c-0.4,1.6-0.7,2.8-0.7,2.8
		c0,0,3.4,0.9,3.4,0.8c0,0,0.3-1.3,0.7-2.8c0.4-1.5,0.7-2.8,0.7-2.8c0,0,0.4,0.1,0.8,0.2c0.4,0.1,1,0.3,1.3,0.3l0.6,0.1l-0.7,2.8
		c-0.4,1.5-0.7,2.8-0.7,2.8c0,0,3.3,0.9,3.4,0.9C463.4,82.7,463.5,82.2,464.1,79.9L464.1,79.9z M465.3,72.5
		c-1.4-0.1-2.7-0.4-4.5-0.8c-0.3-0.1-0.7-0.2-0.8-0.2c-0.2-0.1-0.3-0.1-0.2-0.1c0,0,0.4-1.7,0.9-3.8l0.9-3.7l0.3,0.1
		c0.2,0,0.6,0.1,1,0.2c3.4,0.8,5.3,1.6,6.5,2.8c0.4,0.4,0.7,0.9,0.8,1.4c0.1,0.4,0.1,1,0.1,1.4c-0.3,1.5-1.2,2.4-3,2.7
		c-0.3,0.1-0.5,0.1-1.1,0.1C465.8,72.5,465.4,72.5,465.3,72.5L465.3,72.5z M466.9,61.3c-0.6-0.1-1.5-0.2-2.3-0.4
		c-0.4-0.1-2-0.5-2.1-0.5c0,0,1.7-6.8,1.7-6.8c0,0,2.4,0.5,3.2,0.8c2,0.6,3.3,1.5,3.8,2.5c0.2,0.4,0.3,0.7,0.3,1.2
		c0,0.4,0,0.5-0.1,0.8c-0.1,0.6-0.4,1-0.7,1.4c-0.5,0.5-1.2,0.8-2.2,0.9C468.1,61.3,467.1,61.3,466.9,61.3L466.9,61.3z"/>
</g>
<g id="g3414" transform="translate(-905.86038,3.3998412)" inkscape:export-filename="/Users/sparwana/Business/Kripter International Solutions/Products/Kripter Exchange/graphics/currency icons/eth_logo.png" inkscape:export-xdpi="90" inkscape:export-ydpi="90">
	<ellipse id="path4254" class="st2" cx="1257.9" cy="236.4" rx="24.5" ry="24.8"/>
	<path id="path4244" inkscape:connector-curvature="0" inkscape:export-xdpi="90" inkscape:export-ydpi="90" class="st8" d="
		M1257.3,204.6c-17.2,0-31.2,14-31.2,31.2s14,31.2,31.2,31.2s31.2-14,31.2-31.2S1274.5,204.6,1257.3,204.6z M1257.6,216l12.6,20.1
		l-12.5,7l-12.7-7.3L1257.6,216L1257.6,216z M1244.8,238.3l12.9,7.3l12.2-7.2l-12.3,16.4L1244.8,238.3L1244.8,238.3z"/>
</g>
<g id="g3401" transform="translate(-1648.8914,-10.203304)" inkscape:export-filename="/Users/sparwana/Business/Kripter International Solutions/Products/Kripter Exchange/graphics/currency icons/ltc_logo.png" inkscape:export-xdpi="90" inkscape:export-ydpi="90">
	<circle id="path4470" class="st9" cx="2000.1" cy="158.5" r="31.2"/>
	<path id="path4441" inkscape:connector-curvature="0" class="st10" d="M1984.2,137.7c-4.6,3.6-7.8,8.6-9.3,14.2l25.3-19.8
		C1994.4,132.2,1988.8,134.1,1984.2,137.7L1984.2,137.7z M1974.1,159.7c0.1,2.2,0.5,4.5,1.2,6.6l38.8-30.4c-1.9-1.2-4-2.1-6.1-2.7
		L1974.1,159.7z M1977.5,171.6c0.6,1.1,1.3,2.2,2.1,3.2c0.5,0.7,1.1,1.4,1.7,2l41.4-32.5c-0.5-0.8-1-1.5-1.5-2.2
		c-0.8-1-1.7-2-2.6-2.8L1977.5,171.6L1977.5,171.6z M1985.8,180.6c2.1,1.4,4.4,2.5,6.9,3.3l34.2-26.8c-0.1-2.5-0.6-5.1-1.5-7.5
		L1985.8,180.6L1985.8,180.6z M2000.3,185c6,0.1,11.8-1.9,16.5-5.6c4.7-3.7,8-8.9,9.4-14.7L2000.3,185z"/>
	<path id="path4464" inkscape:connector-curvature="0" class="st2" d="M2000.5,141.9c-4.6,0-4.8,0-4.8,0c0,0-1,3.8-2.2,8.4
		s-2.2,8.3-2.2,8.3c0,0-3.6,1.3-3.7,1.3c0,0,0,0,0,0.1c0,0.1-1.2,4.6-1.2,4.6c0,0,0.8-0.3,1.8-0.7c1-0.4,1.8-0.7,1.8-0.7
		c0,0-0.6,2.2-1.3,4.9c-0.7,2.7-1.3,4.9-1.3,4.9c0,0,3.4,0,12.8,0l12.8,0l0.8-3l0,0c0.4-1.6,0.8-3,0.8-3.1l0-0.1h-8c-4.4,0-8,0-8,0
		c0,0,2-7.6,2-7.6c0,0,1.1-0.4,2.4-0.9c1.3-0.5,2.4-0.9,2.4-0.9c0.1-0.1,1.2-4.5,1.2-4.5c0,0,0-0.1-0.1,0c-0.3,0.1-4.7,1.7-4.7,1.7
		c0,0,0.8-2.9,1.7-6.3c0.9-3.5,1.7-6.4,1.7-6.4l0-0.1L2000.5,141.9L2000.5,141.9z"/>
</g>
<circle id="path3432" class="st1" cx="446.4" cy="239.4" r="31.2"/>
<path id="path3437" inkscape:connector-curvature="0" class="st11" d="M445.9,216.9l-13.7,22.8l0,0l0,0l13.6,7.8v0l13.7-7.8l0,0
	L445.9,216.9L445.9,216.9z M432.3,242l13.6,19.2v0l0,0l0,0v0l13.6-19.2l-13.6,8.2L432.3,242L432.3,242z"/>
<g id="g3424" transform="translate(-666.86828,59.511051)">
	<path id="path4415" inkscape:connector-curvature="0" sodipodi:nodetypes="cccc" class="st11" d="M1112.8,157.4l0,16.7l-13.6,6.1
		L1112.8,157.4z"/>
	<path id="path4417" inkscape:connector-curvature="0" sodipodi:nodetypes="cccc" class="st12" d="M1099.1,180.2l13.6,7.8V174
		L1099.1,180.2z"/>
	<path id="path4419" inkscape:connector-curvature="0" sodipodi:nodetypes="cccc" class="st13" d="M1099.2,182.5l13.6,8.2v11
		L1099.2,182.5z"/>
	<path id="path4423" inkscape:connector-curvature="0" sodipodi:nodetypes="cccc" class="st8" d="M1112.8,157.4l0,16.7l13.7,6.1
		L1112.8,157.4z"/>
	<path id="path4425" inkscape:connector-curvature="0" sodipodi:nodetypes="cccc" class="st14" d="M1126.5,180.2l-13.7,7.8V174
		L1126.5,180.2z"/>
	<path id="path4427" inkscape:connector-curvature="0" sodipodi:nodetypes="cccc" class="st15" d="M1126.4,182.5l-13.6,8.2v11
		L1126.4,182.5z"/>
</g>
<circle id="circle4208" inkscape:export-xdpi="349.61539" inkscape:export-ydpi="349.61539" class="st16" cx="501.8" cy="138.4" r="31.2">
</circle>
<circle id="circle3472" inkscape:export-xdpi="349.61539" inkscape:export-ydpi="349.61539" class="st17" cx="501.8" cy="42.4" r="31.2">
</circle>
<path id="path3474" inkscape:connector-curvature="0" inkscape:export-xdpi="349.61539" inkscape:export-ydpi="349.61539" sodipodi:nodetypes="cssssssssssssssccssscc" class="st2" d="
	M495.7,21c2.4,0.2,6.4,2.1,6.4,3c0,0.1-2.5,0.7-5.6,1.2c-4.9,0.9-5.8,1.2-7.6,2.2c-5.9,3.6-6.5,13.7-1.2,16.9
	c2.1,1.3,3.8,1.2,12.9-0.5c4.4-0.8,8.3-1.4,8.9-1.3c1.5,0.3,3.6,2.3,4,3.8c0.6,2.5-0.5,5.6-2.8,7.3c-1.2,0.9-2.2,1.2-9,2.5
	c-4.2,0.8-8.6,1.6-9.8,1.7c-5.4,0.4-10.3-3-11.9-8.3c-0.2-0.5-0.2-0.9-0.1-1c0.1,0,1.1,0.7,2.2,1.6c2.2,1.8,5.1,2.8,8,2.9
	c2,0,16.5-2.6,17.8-3.2c0.8-0.4,1-1.9,0.2-2.2c-0.2-0.1-3.9,0.6-8.2,1.4c-4.9,1-8.4,1.5-9.7,1.4c-8.4-0.3-13.4-10.5-10.2-19.1
	C482.5,24.9,489.4,20.3,495.7,21L495.7,21z"/>
<path id="path3476" inkscape:connector-curvature="0" inkscape:export-xdpi="349.61539" inkscape:export-ydpi="349.61539" sodipodi:nodetypes="cssssssssssssssccssscc" class="st2" d="
	M506.4,63.3c-2.4-0.2-6.4-2.1-6.4-3c0-0.1,2.5-0.7,5.6-1.2c4.9-0.9,5.8-1.2,7.6-2.2c5.9-3.6,6.5-13.7,1.2-16.9
	c-2.1-1.3-3.8-1.2-12.9,0.5c-4.4,0.8-8.3,1.4-8.9,1.3c-1.5-0.3-3.6-2.3-4-3.8c-0.6-2.5,0.5-5.6,2.8-7.3c1.2-0.9,2.2-1.2,9-2.5
	c4.2-0.8,8.6-1.6,9.8-1.7c5.4-0.4,10.3,3,11.9,8.3c0.2,0.5,0.2,0.9,0.1,1c-0.1,0-1.1-0.7-2.2-1.6c-2.2-1.8-5.1-2.8-8-2.9
	c-2,0-16.5,2.6-17.8,3.2c-0.8,0.4-1,1.9-0.2,2.2c0.2,0.1,3.9-0.6,8.2-1.4c4.9-1,8.4-1.5,9.7-1.4c8.4,0.3,13.4,10.5,10.2,19.1
	C519.6,59.4,512.8,64,506.4,63.3L506.4,63.3z"/>
<path id="rect3468" inkscape:connector-curvature="0" class="st18" d="M502.1,113c-0.1,0-0.6,1.3-1.1,2.9c-0.5,1.6-1.5,4.1-2.2,5.4
	c-0.7,1.4-1.3,2.5-1.3,2.6c0,0,0.5-0.1,1.2-0.2c2.3-0.5,2.1-0.9,1.9,5.8c-0.3,9.1-1.6,15.3-4.3,20.2l-1.1,2h-2.9
	c-2.8,0-2.9,0-3.1-0.7c-0.1-0.4-0.5-3-1-5.8c-0.7-4.3-2-9.4-2.9-11.5c-0.2-0.6-0.1-0.6,2.1-0.5l2.3,0.1l-1.2-1.3
	c-2.2-2.4-5.8-5.5-8.1-6.8c-0.2-0.1,0.6,1.7,1.7,3.9c2.6,5.3,3.9,10.1,4.3,16.2c0.2,2.4,0.2,4.8,0.1,5.4c-0.2,1.1-0.2,1.1,1.6,2.2
	l1.8,1h12.2h12.2l1.8-1c1.8-1,1.8-1.1,1.6-2.2c-0.1-0.6-0.1-3.1,0.1-5.4c0.4-6.1,1.7-10.9,4.3-16.2c1.1-2.3,1.9-4,1.7-3.9
	c-2.3,1.3-5.9,4.4-8.1,6.8l-1.2,1.3l2.3-0.1c2.1-0.1,2.3-0.1,2,0.5c-0.8,2-2.2,7.5-3,11.7c-0.5,2.7-0.9,5.2-1,5.6
	c-0.1,0.7-0.3,0.7-3.1,0.7H509l-1.1-2c-2.7-4.9-4.1-11.1-4.3-20.2c-0.2-6.7-0.3-6.3,1.9-5.8c0.7,0.2,1.2,0.3,1.2,0.2
	c0,0-0.6-1.2-1.3-2.6c-0.7-1.4-1.7-3.8-2.2-5.4C502.7,114.3,502.2,113,502.1,113L502.1,113z M502.1,146.2c0.1,0,0.3,0.4,0.4,0.9
	c0.1,0.7,1,2.9,1.8,4.4c0.1,0.1-0.9,0.2-2.2,0.2s-2.3-0.1-2.2-0.2c0.8-1.5,1.6-3.7,1.8-4.4C501.8,146.7,502,146.2,502.1,146.2z
	 M493.2,156l1.1,1l1.1,1h6.7h6.7l1.1-1l1.1-1h-9H493.2z M497.5,159.6l0.9,1c0.9,0.9,1,1,3.7,1s2.8,0,3.7-1l0.9-1h-4.7H497.5z
	 M500.1,162.5l0.9,1.3c0.5,0.7,1,1.3,1.1,1.3c0.1,0,0.6-0.6,1.1-1.3l0.9-1.3h-2H500.1L500.1,162.5z"/>
<circle id="circle4276" class="st1" cx="557" cy="234.1" r="31.2"/>
<path id="path4268" inkscape:connector-curvature="0" d="M563.7,254.7c-2.2-0.4-4.3-1.7-5.6-3.5c-0.5-0.7-1-1.9-1.3-2.8
	c-0.2-0.7-0.2-0.9-0.2-2c0-1.5,0.2-2.3,0.9-3.7c0.3-0.5,0.5-1.1,0.5-1.3c0.4-1.5-0.5-3.1-1.9-3.8c-1-0.5-2.1-0.5-3.1,0
	c-0.7,0.3-1.1,0.8-1.8,1.7c-1.8,2.6-4.5,4-7.7,3.9c-3.9-0.2-7.2-2.9-7.9-6.7c-0.2-1.1-0.2-2.7,0.1-3.7c0.9-2.9,3.1-5.1,6-5.9
	c0.7-0.2,0.9-0.2,2.2-0.2c1.3,0,1.5,0,2.2,0.2c2,0.5,3.8,1.8,4.9,3.5c0.5,0.8,0.8,1.1,1.3,1.4c1.8,1.2,4.2,0.5,5.2-1.4
	c0.3-0.6,0.3-0.6,0.3-1.5V228l-0.5-0.9c-0.8-1.6-1.1-2.7-1.1-4.2c0-4.9,4.4-8.8,9.4-8.3c2.1,0.2,3.7,1,5.2,2.4
	c3.2,3.1,3.4,8.1,0.3,11.4c-1.6,1.7-3.5,2.6-5.9,2.7c-1,0.1-1.4,0.2-2,0.5c-1.2,0.6-1.9,1.8-1.9,3c0,1.3,0.7,2.5,2,3.1
	c0.5,0.3,0.7,0.3,1.6,0.4c2.3,0.2,3.6,0.6,5.1,1.7c3,2.1,4.2,6,3,9.4C571.8,253,567.8,255.3,563.7,254.7L563.7,254.7z"/>
<path id="circle4278" inkscape:connector-curvature="0" d="M45.6,353c-8.8,0-16,7.2-16,16s7.2,16,16,16s16-7.2,16-16
	S54.4,353,45.6,353z M49.6,359c0.2,0,0.3,0,0.5,0c1.1,0.1,1.9,0.5,2.7,1.2c1.7,1.6,1.7,4.2,0.1,5.8c-0.8,0.9-1.8,1.3-3,1.4
	c-0.5,0-0.7,0.1-1,0.2c-0.6,0.3-1,0.9-1,1.6c0,0.7,0.4,1.3,1,1.6c0.3,0.1,0.3,0.1,0.8,0.2c1.2,0.1,1.9,0.3,2.6,0.8
	c1.5,1.1,2.2,3.1,1.5,4.8c-0.7,2-2.7,3.1-4.8,2.8c-1.1-0.2-2.2-0.8-2.9-1.8c-0.3-0.4-0.5-1-0.7-1.4c-0.1-0.4-0.1-0.5-0.1-1
	c0-0.8,0.1-1.2,0.5-1.9c0.1-0.3,0.3-0.6,0.3-0.7c0.2-0.8-0.2-1.6-1-2c-0.5-0.2-1.1-0.2-1.6,0c-0.3,0.2-0.6,0.4-0.9,0.9
	c-0.9,1.4-2.3,2.1-3.9,2c-2-0.1-3.7-1.5-4.1-3.4c-0.1-0.6-0.1-1.4,0.1-1.9c0.4-1.5,1.6-2.6,3.1-3c0.4-0.1,0.5-0.1,1.2-0.1
	c0.7,0,0.8,0,1.1,0.1c1,0.3,2,0.9,2.5,1.8c0.3,0.4,0.4,0.6,0.7,0.7c0.9,0.6,2.2,0.3,2.7-0.7c0.1-0.3,0.1-0.3,0.1-0.8v-0.5l-0.2-0.5
	c-0.4-0.8-0.6-1.4-0.6-2.1C45.3,360.9,47.3,359,49.6,359L49.6,359z"/>
</svg>
