<?xml version="1.0" encoding="UTF-8" standalone="no"?>
<!-- Created with Inkscape (http://www.inkscape.org/) -->

<svg
   xmlns:dc="http://purl.org/dc/elements/1.1/"
   xmlns:cc="http://creativecommons.org/ns#"
   xmlns:rdf="http://www.w3.org/1999/02/22-rdf-syntax-ns#"
   xmlns:svg="http://www.w3.org/2000/svg"
   xmlns="http://www.w3.org/2000/svg"
   xmlns:sodipodi="http://sodipodi.sourceforge.net/DTD/sodipodi-0.dtd"
   xmlns:inkscape="http://www.inkscape.org/namespaces/inkscape"
   width="210mm"
   height="297mm"
   viewBox="0 0 744.09448819 1052.3622047"
   id="svg4203"
   version="1.1"
   inkscape:version="0.91 r13725"
   sodipodi:docname="Supreme CrypX Logo v02.svg">
  <defs
     id="defs4205" />
  <sodipodi:namedview
     id="base"
     pagecolor="#ffffff"
     bordercolor="#666666"
     borderopacity="1.0"
     inkscape:pageopacity="0.0"
     inkscape:pageshadow="2"
     inkscape:zoom="1.1151764"
     inkscape:cx="22.183816"
     inkscape:cy="843.30623"
     inkscape:document-units="px"
     inkscape:current-layer="layer1"
     showgrid="false"
     showguides="true"
     inkscape:guide-bbox="true"
     inkscape:window-width="1619"
     inkscape:window-height="947"
     inkscape:window-x="1667"
     inkscape:window-y="18"
     inkscape:window-maximized="0" />
  <metadata
     id="metadata4208">
    <rdf:RDF>
      <cc:Work
         rdf:about="">
        <dc:format>image/svg+xml</dc:format>
        <dc:type
           rdf:resource="http://purl.org/dc/dcmitype/StillImage" />
        <dc:title />
      </cc:Work>
    </rdf:RDF>
  </metadata>
  <g
     inkscape:label="Layer 1"
     inkscape:groupmode="layer"
     id="layer1">
    <g
       style="font-style:normal;font-variant:normal;font-weight:900;font-stretch:normal;font-size:27.5px;line-height:125%;font-family:'Arial Black';-inkscape-font-specification:'Arial Black, Heavy';text-align:center;letter-spacing:0px;word-spacing:0px;writing-mode:lr-tb;text-anchor:middle;fill:#ffffff;fill-opacity:1;stroke:none;stroke-width:1px;stroke-linecap:butt;stroke-linejoin:miter;stroke-opacity:1"
       id="text4949"
       transform="translate(23.125203,117.44393)" />
    <g
       id="g5014"
       style="font-style:normal;font-variant:normal;font-weight:900;font-stretch:normal;font-size:27.5px;line-height:125%;font-family:'Arial Black';-inkscape-font-specification:'Arial Black, Heavy';text-align:center;letter-spacing:0px;word-spacing:0px;writing-mode:lr-tb;text-anchor:middle;fill:#ffffff;fill-opacity:1;stroke:none;stroke-width:1px;stroke-linecap:butt;stroke-linejoin:miter;stroke-opacity:1"
       transform="translate(103.1252,117.44393)" />
    <g
       transform="scale(0.96286685,1.0385652)"
       style="font-style:normal;font-variant:normal;font-weight:bold;font-stretch:normal;font-size:44.36109543px;line-height:125%;font-family:Futura;-inkscape-font-specification:'Futura, Bold';text-align:center;letter-spacing:0px;word-spacing:0px;writing-mode:lr-tb;text-anchor:middle;fill:#4d4d4d;fill-opacity:1;stroke:none;stroke-width:1px;stroke-linecap:butt;stroke-linejoin:miter;stroke-opacity:1"
       id="text4332">
      <path
         d="m 178.07206,72.598556 q -1.41956,-1.153389 -2.83911,-1.685722 -1.41956,-0.576694 -2.75039,-0.576694 -1.68572,0 -2.75039,0.7985 -1.06467,0.798499 -1.06467,2.084971 0,0.887222 0.53234,1.463916 0.53233,0.576695 1.37519,1.020305 0.88722,0.39925 1.95189,0.709778 1.10903,0.310528 2.17369,0.665416 4.25867,1.419555 6.21056,3.815055 1.99625,2.351138 1.99625,6.166192 0,2.572943 -0.88723,4.657915 -0.84286,2.084971 -2.52858,3.593249 -1.64136,1.463916 -4.08122,2.262416 -2.3955,0.84286 -5.45641,0.84286 -6.34364,0 -11.75569,-3.770693 l 3.72633,-7.009053 q 1.95189,1.730083 3.85941,2.572944 1.90753,0.84286 3.7707,0.84286 2.12933,0 3.14963,-0.975944 1.06467,-0.975944 1.06467,-2.218054 0,-0.754139 -0.26617,-1.286472 -0.26616,-0.576694 -0.88722,-1.020305 -0.62105,-0.487972 -1.64136,-0.887222 -0.97594,-0.39925 -2.3955,-0.887222 -1.68572,-0.532333 -3.32708,-1.153389 -1.597,-0.665416 -2.88347,-1.730082 -1.24211,-1.064667 -2.04061,-2.661666 -0.75414,-1.641361 -0.75414,-4.125582 0,-2.484221 0.7985,-4.480471 0.84286,-2.04061 2.30678,-3.460165 1.50827,-1.463916 3.63761,-2.262416 2.17369,-0.7985 4.83536,-0.7985 2.48422,0 5.19024,0.709778 2.70603,0.665416 5.19025,1.996249 l -3.46016,6.787248 z"
         style=""
         id="path4145" />
      <path
         d="m 195.66054,74.727888 0,12.820357 q 0,4.214304 4.08122,4.214304 4.08122,0 4.08122,-4.214304 l 0,-12.820357 8.02936,0 0,14.372995 q 0,4.613554 -3.06092,6.920331 -3.01655,2.306777 -9.04966,2.306777 -6.03311,0 -9.09403,-2.306777 -3.01655,-2.306777 -3.01655,-6.920331 l 0,-14.372995 8.02936,0 z"
         style=""
         id="path4147" />
      <path
         d="m 235.49334,86.173051 q 0,-1.064666 -0.39925,-1.996249 -0.35489,-0.975944 -1.06467,-1.685722 -0.70978,-0.709777 -1.68572,-1.109027 -0.93158,-0.443611 -2.04061,-0.443611 -1.06467,0 -1.99625,0.39925 -0.93158,0.399249 -1.64136,1.109027 -0.66542,0.709777 -1.10903,1.685722 -0.39925,0.931583 -0.39925,1.996249 0,1.064666 0.39925,1.996249 0.39925,0.931583 1.10903,1.641361 0.70978,0.665416 1.64136,1.109027 0.97594,0.39925 2.04061,0.39925 1.06467,0 1.99625,-0.39925 0.93158,-0.39925 1.597,-1.109027 0.70978,-0.709778 1.10903,-1.641361 0.44361,-0.931583 0.44361,-1.951888 z m -10.11433,22.668519 -8.02936,0 0,-34.113682 8.02936,0 0,2.528583 q 2.57294,-3.23836 7.00905,-3.23836 2.43986,0 4.52483,0.975944 2.12933,0.931583 3.68197,2.572943 1.55264,1.641361 2.3955,3.859416 0.88722,2.218055 0.88722,4.746637 0,2.528582 -0.88722,4.702276 -0.84286,2.173694 -2.3955,3.815054 -1.50827,1.641361 -3.59325,2.572944 -2.08497,0.931583 -4.52483,0.931583 -4.25866,0 -7.09777,-2.927832 l 0,13.574494 z"
         style=""
         id="path4149" />
      <path
         d="m 248.4544,74.727888 8.02936,0 0,3.726332 q 1.28647,-2.04061 3.14964,-3.105276 1.86316,-1.109028 4.34738,-1.109028 0.31053,0 0.66542,0 0.39925,0 0.88722,0.08872 l 0,7.67447 q -1.597,-0.7985 -3.46016,-0.7985 -2.79475,0 -4.21431,1.685722 -1.37519,1.64136 -1.37519,4.835359 l 0,9.759441 -8.02936,0 0,-22.757242 z"
         style=""
         id="path4151" />
      <path
         d="m 286.05736,82.801608 q -0.39925,-1.685722 -1.64136,-2.706027 -1.24212,-1.020305 -3.01656,-1.020305 -1.86317,0 -3.06091,0.975944 -1.15339,0.975944 -1.46392,2.750388 l 9.18275,0 z m -9.40456,4.657915 q 0,5.190248 4.87972,5.190248 2.61731,0 3.94814,-2.129333 l 7.76319,0 q -2.35113,7.807553 -11.75569,7.807553 -2.88347,0 -5.27897,-0.842861 -2.3955,-0.887222 -4.12558,-2.484221 -1.68572,-1.596999 -2.6173,-3.815054 -0.93159,-2.218055 -0.93159,-4.968443 0,-2.83911 0.88723,-5.101526 0.88722,-2.306777 2.52858,-3.903776 1.64136,-1.597 3.94814,-2.439861 2.35113,-0.887221 5.27897,-0.887221 2.88347,0 5.19024,0.887221 2.30678,0.842861 3.90378,2.484222 1.597,1.64136 2.43986,4.036859 0.84286,2.351139 0.84286,5.323332 l 0,0.842861 -16.90158,0 z"
         style=""
         id="path4153" />
      <path
         d="m 298.10071,74.727888 8.02936,0 0,2.794749 q 3.28272,-3.149637 7.36394,-3.149637 5.05716,0 7.71883,4.258665 2.70603,-4.303027 7.71883,-4.303027 1.597,0 3.01656,0.487973 1.41955,0.443611 2.43986,1.463916 1.0203,0.975944 1.597,2.572943 0.62105,1.597 0.62105,3.859416 l 0,14.772244 -8.02936,0 0,-11.223357 q 0,-1.730083 -0.26616,-2.83911 -0.22181,-1.109027 -0.70978,-1.730083 -0.44361,-0.621055 -1.06467,-0.84286 -0.62105,-0.221806 -1.33083,-0.221806 -3.85942,0 -3.85942,5.633859 l 0,11.223357 -8.02935,0 0,-11.223357 q 0,-1.730083 -0.22181,-2.83911 -0.22181,-1.153388 -0.66542,-1.818805 -0.39925,-0.665416 -1.06466,-0.887222 -0.66542,-0.266166 -1.55264,-0.266166 -0.75414,0 -1.41956,0.221805 -0.66541,0.221806 -1.19775,0.887222 -0.48797,0.621055 -0.7985,1.774444 -0.26616,1.109027 -0.26616,2.927832 l 0,11.223357 -8.02936,0 0,-22.757242 z"
         style=""
         id="path4155" />
      <path
         d="m 358.83729,82.801608 q -0.39925,-1.685722 -1.64136,-2.706027 -1.24212,-1.020305 -3.01656,-1.020305 -1.86316,0 -3.06091,0.975944 -1.15339,0.975944 -1.46392,2.750388 l 9.18275,0 z m -9.40456,4.657915 q 0,5.190248 4.87972,5.190248 2.61731,0 3.94814,-2.129333 l 7.76319,0 q -2.35113,7.807553 -11.75569,7.807553 -2.88347,0 -5.27897,-0.842861 -2.3955,-0.887222 -4.12558,-2.484221 -1.68572,-1.596999 -2.6173,-3.815054 -0.93159,-2.218055 -0.93159,-4.968443 0,-2.83911 0.88723,-5.101526 0.88722,-2.306777 2.52858,-3.903776 1.64136,-1.597 3.94814,-2.439861 2.35113,-0.887221 5.27897,-0.887221 2.88347,0 5.19024,0.887221 2.30678,0.842861 3.90378,2.484222 1.597,1.64136 2.43986,4.036859 0.84286,2.351139 0.84286,5.323332 l 0,0.842861 -16.90158,0 z"
         style=""
         id="path4157" />
    </g>
    <g
       transform="scale(0.96286685,1.0385652)"
       style="font-style:normal;font-variant:normal;font-weight:bold;font-stretch:normal;font-size:23.56743813px;line-height:125%;font-family:Futura;-inkscape-font-specification:'Futura, Bold';text-align:center;letter-spacing:0px;word-spacing:0px;writing-mode:lr-tb;text-anchor:middle;fill:#4d4d4d;fill-opacity:1;stroke:none;stroke-width:1px;stroke-linecap:butt;stroke-linejoin:miter;stroke-opacity:1"
       id="text4336">
      <path
         d="m 300.55105,53.481027 q -1.10767,-0.754158 -2.23891,-0.754158 -0.61275,0 -1.15481,0.212107 -0.51848,0.212107 -0.91913,0.612753 -0.40064,0.377079 -0.63632,0.91913 -0.2121,0.518484 -0.2121,1.178372 0,0.636321 0.2121,1.178372 0.23568,0.518484 0.61276,0.91913 0.40064,0.377079 0.94269,0.589186 0.54206,0.212107 1.15481,0.212107 1.20194,0 2.23891,-0.82486 l 0,3.629385 q -1.57902,0.683456 -2.99307,0.683456 -1.31978,0 -2.52172,-0.447781 -1.17837,-0.447782 -2.0975,-1.272642 -0.89556,-0.848428 -1.43761,-2.003232 -0.54205,-1.178372 -0.54205,-2.615986 0,-1.437614 0.51848,-2.615986 0.51849,-1.201939 1.41405,-2.050367 0.89556,-0.871995 2.12107,-1.343344 1.24907,-0.494916 2.66312,-0.494916 1.55545,0 2.87523,0.659888 l 0,3.629386 z"
         style=""
         id="path4160" />
      <path
         d="m 302.93798,49.568832 4.26571,0 0,1.979665 q 0.68346,-1.084102 1.67329,-1.649721 0.98983,-0.589186 2.30961,-0.589186 0.16497,0 0.35351,0 0.21211,0 0.47135,0.04713 l 0,4.077167 q -0.84843,-0.424214 -1.83826,-0.424214 -1.48475,0 -2.23891,0.895563 -0.73059,0.871995 -0.73059,2.568851 l 0,5.184836 -4.26571,0 0,-12.090096 z"
         style=""
         id="path4162" />
      <path
         d="m 319.01319,60.009207 -5.84473,-10.440375 4.94916,0 3.22874,6.198236 3.13447,-6.198236 4.90203,0 -9.70979,18.12336 -4.78419,0 4.12431,-7.682985 z"
         style=""
         id="path4164" />
      <path
         d="m 340.47134,55.649231 q 0,-0.565618 -0.21211,-1.060535 -0.18854,-0.518483 -0.56562,-0.895562 -0.37708,-0.377079 -0.89556,-0.589186 -0.49492,-0.235675 -1.0841,-0.235675 -0.56562,0 -1.06054,0.212107 -0.49491,0.212107 -0.87199,0.589186 -0.35351,0.377079 -0.58919,0.895563 -0.2121,0.494916 -0.2121,1.060535 0,0.565618 0.2121,1.060534 0.21211,0.494917 0.58919,0.871996 0.37708,0.353511 0.87199,0.589186 0.51849,0.212107 1.08411,0.212107 0.56561,0 1.06053,-0.212107 0.49492,-0.212107 0.84843,-0.589186 0.37708,-0.377079 0.58918,-0.871996 0.23568,-0.494916 0.23568,-1.036967 z m -5.37338,12.042961 -4.2657,0 0,-18.12336 4.2657,0 0,1.343344 q 1.36691,-1.720423 3.72366,-1.720423 1.29621,0 2.40388,0.518484 1.13123,0.494916 1.95609,1.366911 0.82486,0.871995 1.27265,2.050367 0.47134,1.178372 0.47134,2.521716 0,1.343344 -0.47134,2.498149 -0.44779,1.154804 -1.27265,2.026799 -0.80129,0.871996 -1.90896,1.366912 -1.10767,0.494916 -2.40388,0.494916 -2.26247,0 -3.77079,-1.555451 l 0,7.211636 z"
         style=""
         id="path4166" />
      <path
         d="m 352.8483,52.184818 -5.53835,-8.295738 5.70332,0 2.40388,4.59565 2.96949,-4.59565 5.70332,0 -5.86829,8.295738 6.62245,9.47411 -5.63262,0 -3.55868,-5.79759 -4.17144,5.79759 -5.58548,0 6.9524,-9.47411 z"
         style=""
         id="path4168" />
    </g>
    <circle
       inkscape:export-ydpi="349.61539"
       inkscape:export-xdpi="349.61539"
       style="opacity:1;fill:#ffac00;fill-opacity:1;stroke:none;stroke-width:4;stroke-linecap:round;stroke-linejoin:round;stroke-miterlimit:4;stroke-dasharray:none;stroke-dashoffset:0;stroke-opacity:1"
       id="circle4340"
       cx="110.18367"
       cy="58.686104"
       transform="matrix(0.97674487,0.21440488,-0.21440488,0.97674487,0,0)"
       r="44.651051" />
    <g
       id="g4383"
       transform="matrix(1.118274,0.24547187,-0.24547187,1.118274,-119.36479,-280.45205)"
       inkscape:export-xdpi="349.61539"
       inkscape:export-ydpi="349.61539">
      <path
         style="fill:#ffffff;fill-rule:evenodd;stroke:none;stroke-width:0.39343035px;stroke-linecap:butt;stroke-linejoin:miter;stroke-opacity:1"
         d="m 243.17831,254.93156 c 1.38643,-0.31154 2.80595,-0.7055 4.00765,-0.54897 0.64008,14.51923 -0.37593,16.25047 -4.10741,22.10018 l -5.28808,0 c -1.20806,-6.09933 -1.9907,-9.90886 -4.83327,-15.08777 l 5.56522,0.17174 c -3.59455,-3.41407 -9.23882,-6.70848 -13.59857,-8.66822 8.76163,12.0603 7.29693,18.26634 8.08724,25.88883 l 3.4057,3.52495 28.07409,0 3.59593,-3.52495 c 0.79031,-7.62249 -0.67438,-13.82853 8.08724,-25.88883 -4.35974,1.95974 -9.90893,5.25415 -13.50346,8.66822 l 5.27988,-0.17174 c -2.84256,5.17891 -3.57638,8.95152 -4.78445,15.05084 l -5.19548,0.0131 c -3.7315,-5.8497 -4.79306,-7.47669 -4.153,-21.99592 1.20174,-0.15654 2.73556,0.1014 4.12198,0.41294 -2.13211,-3.6227 -5.9417,-9.77605 -7.33775,-13.606 -1.42587,3.85841 -5.26168,10.06229 -7.42346,13.66169 z"
         id="path4348"
         inkscape:connector-curvature="0"
         sodipodi:nodetypes="ccccccccccccccccccccc" />
      <path
         sodipodi:nodetypes="cccc"
         inkscape:connector-curvature="0"
         id="path4354"
         d="m 244.51172,289.7394 c 2.10121,1.82817 4.09188,3.70096 6.17629,5.64466 1.94227,-1.94301 3.88134,-3.83588 5.909,-5.64466 z"
         style="fill:#ffffff;fill-rule:evenodd;stroke:none;stroke-width:1px;stroke-linecap:butt;stroke-linejoin:miter;stroke-opacity:1" />
      <path
         sodipodi:nodetypes="ccccc"
         style="fill:#ffffff;fill-rule:evenodd;stroke:none;stroke-width:1px;stroke-linecap:butt;stroke-linejoin:miter;stroke-opacity:1"
         d="m 238.87609,284.74649 c 1.37323,0.97806 2.63049,1.97205 3.84754,2.97457 l 15.61894,0 c 1.22068,-1.02674 2.47794,-2.02337 3.80096,-2.97457 z"
         id="path4381"
         inkscape:connector-curvature="0" />
    </g>
    <path
       style="opacity:1;fill:#000000;fill-opacity:1;stroke:none;stroke-width:4;stroke-linecap:round;stroke-linejoin:round;stroke-miterlimit:4;stroke-dasharray:none;stroke-dashoffset:0;stroke-opacity:1"
       d="m 93.71906,169.1818 a 44.651051,44.651051 0 0 0 -45.634766,35.03125 44.651051,44.651051 0 0 0 34.039063,53.1875 44.651051,44.651051 0 0 0 53.187503,-34.04102 44.651051,44.651051 0 0 0 -34.03906,-53.18554 44.651051,44.651051 0 0 0 -7.55274,-0.99219 z m 4.591796,14.52929 c 0.62102,4.62562 3.370234,12.44108 4.865234,17.01563 -1.4739,-0.68872 -3.12551,-1.35273 -4.507814,-1.47266 -4.27982,16.07936 -3.49276,18.15964 -0.75586,25.61719 l 5.814464,1.25977 c 2.84817,-6.52416 4.59489,-10.56258 9.04492,-15.65625 l -5.94727,-1.10352 c 4.85773,-2.93551 11.87207,-5.25757 17.22852,-6.3789 -12.75836,11.33599 -12.64355,18.6348 -15.39844,26.96484 l -4.88672,3.06055 -31.394533,-6.89258 -2.94336,-4.77735 c 0.987323,-8.71803 4.147985,-15.29809 -2.689453,-30.93554 4.394334,3.26172 9.898444,8.33102 13.080078,13.03125 l -6.18164,-1.5586 c 1.907496,6.48921 1.847442,10.94134 1.701172,18.0586 l 5.914062,1.29883 c 5.608756,-5.62562 7.1693,-7.31344 10.017578,-23.70704 -1.305406,-0.47003 -2.990304,-0.37714 -4.617187,-0.36914 3.301013,-3.49446 9.114599,-9.49032 11.656249,-13.45508 z m -23.785156,45.74024 26.01954,5.71094 c -1.712994,0.73894 -3.363384,1.546 -4.980474,2.39453 l -17.4668,-3.83399 c -1.114905,-1.41984 -2.276705,-2.84065 -3.572266,-4.27148 z m 5.076172,6.9668 13.515625,2.96679 c -2.711484,1.52497 -5.345196,3.16528 -7.99414,4.86133 -1.853818,-2.68525 -3.620521,-5.26794 -5.521485,-7.82812 z"
       id="circle4170"
       inkscape:connector-curvature="0" />
    <circle
       r="44.651051"
       transform="matrix(0.97674487,0.21440488,-0.21440488,0.97674487,0,0)"
       cy="165.07205"
       cx="252.88538"
       id="circle4155"
       style="opacity:1;fill:#ffac00;fill-opacity:1;stroke:none;stroke-width:4;stroke-linecap:round;stroke-linejoin:round;stroke-miterlimit:4;stroke-dasharray:none;stroke-dashoffset:0;stroke-opacity:1"
       inkscape:export-xdpi="349.61539"
       inkscape:export-ydpi="349.61539" />
    <path
       style="fill:#ffffff;fill-rule:evenodd;stroke:none;stroke-width:0.39343035px;stroke-linecap:butt;stroke-linejoin:miter;stroke-opacity:1"
       d="M 218.22461 185.37695 C 215.68297 189.3417 209.87132 195.33757 206.57031 198.83203 C 208.1972 198.82403 209.88209 198.7331 211.1875 199.20312 C 208.33922 215.59672 206.77672 217.28259 201.16797 222.9082 L 195.25391 221.60938 C 195.40018 214.49212 195.46022 210.03999 193.55273 203.55078 L 199.73438 205.10938 C 196.55274 200.40914 191.05058 195.33984 186.65625 192.07812 C 193.49369 207.71558 190.33107 214.29564 189.34375 223.01367 L 192.28711 227.79297 L 223.68164 234.68359 L 228.56836 231.625 C 231.32325 223.29496 231.20844 215.99419 243.9668 204.6582 C 238.61035 205.77953 231.59601 208.1016 226.73828 211.03711 L 232.68555 212.14062 C 228.23551 217.2343 226.48878 221.27467 223.64062 227.79883 L 217.82812 226.53711 C 215.09123 219.07956 214.30221 216.99928 218.58203 200.91992 C 219.96433 201.03985 221.61788 201.70581 223.0918 202.39453 C 221.59679 197.81998 218.84564 190.00257 218.22461 185.37695 z M 194.43945 231.11719 C 195.73501 232.54802 196.89876 233.96883 198.01367 235.38867 L 215.47852 239.22266 C 217.09561 238.37413 218.74599 237.56902 220.45898 236.83008 L 194.43945 231.11719 z M 199.51758 238.08398 C 201.41855 240.64416 203.18525 243.22686 205.03906 245.91211 C 207.68801 244.21606 210.31977 242.57575 213.03125 241.05078 L 199.51758 238.08398 z "
       id="path4159" />
  </g>
</svg>
